<svg width="213" height="62" viewBox="0 0 213 62" fill="none" xmlns="http://www.w3.org/2000/svg">
<path d="M17.2765 28.9731C17.2765 30.9359 17.125 32.5906 16.8173 33.9418C16.5143 35.293 16.0645 36.3883 15.4774 37.2274C14.8903 38.0666 14.1612 38.6735 13.29 39.0433C12.4188 39.4131 11.4198 39.598 10.2835 39.598C9.14723 39.598 8.12455 39.4131 7.26286 39.0433C6.40116 38.6735 5.69098 38.0666 5.12283 37.2274C4.55468 36.3883 4.12857 35.293 3.83502 33.9418C3.54148 32.5906 3.3947 30.9359 3.3947 28.9731H0C0 31.045 0.118366 32.932 0.35983 34.6293C0.601294 36.3314 1.08422 37.7916 1.81335 39.0101C2.54248 40.2333 3.56988 41.1816 4.9003 41.8548C6.22599 42.5328 7.99199 42.8694 10.1888 42.8694C12.3857 42.8694 14.1564 42.566 15.5626 41.9544C16.9688 41.3428 18.0719 40.4325 18.8768 39.2235C19.6817 38.0145 20.2356 36.5115 20.5434 34.7099C20.8464 32.913 21.0026 30.8364 21.0026 28.48V11.7058H17.2813V28.9731H17.2765Z" fill="#A6431F"/>
<path d="M123.634 34.0082C123.568 33.6811 123.497 33.2828 123.421 32.8134C123.345 32.344 123.265 31.7467 123.175 31.0165C123.085 30.2864 122.966 29.3192 122.815 28.1244C122.64 26.7305 122.304 25.4694 121.802 24.3457C121.3 23.2221 120.637 22.2691 119.809 21.4821C118.98 20.695 117.995 20.0929 116.854 19.6662C115.713 19.2395 114.421 19.0309 112.986 19.0309C111.878 19.0309 110.789 19.2016 109.719 19.5382C108.654 19.8748 107.693 20.3632 106.845 20.9937C105.998 21.6243 105.302 22.3876 104.757 23.2837C104.213 24.1798 103.91 25.1707 103.843 26.2611H107.465C107.574 25.6922 107.806 25.1707 108.166 24.6918C108.526 24.213 108.962 23.791 109.473 23.4307C109.984 23.0704 110.543 22.7954 111.154 22.5962C111.764 22.3971 112.375 22.3023 112.981 22.3023C113.72 22.3023 114.43 22.4161 115.102 22.6437C115.775 22.8712 116.376 23.2173 116.897 23.6725C117.418 24.1276 117.853 24.7013 118.203 25.3888C118.554 26.0762 118.781 26.887 118.89 27.8257C118.933 28.2192 118.989 28.6175 119.051 29.0205C119.113 29.4235 119.184 29.8075 119.245 30.1631C119.307 30.5187 119.382 30.8411 119.458 31.1114C119.534 31.3863 119.595 31.5855 119.638 31.7182H100.24C99.8712 31.7182 99.4876 31.6329 99.0994 31.4575C98.7064 31.282 98.3419 31.0355 98.0057 30.7226C97.6696 30.4049 97.3902 30.0209 97.1724 29.561C96.9546 29.1058 96.8457 28.5891 96.8457 28.0249V11.7058H93.1244V29.1675C93.1244 29.67 93.0486 30.0825 92.8971 30.4097C92.7456 30.7368 92.5562 30.9976 92.3242 31.1967C92.097 31.3911 91.8508 31.5286 91.5904 31.6044C91.33 31.6803 91.0885 31.7182 90.8707 31.7182H39.5714C39.6377 30.8458 39.6708 29.8739 39.6708 28.8072C39.6708 27.2615 39.5525 25.8819 39.311 24.6729C39.0695 23.4639 38.6576 22.4398 38.0705 21.6006C37.4835 20.7614 36.6975 20.1214 35.7175 19.6899C34.7374 19.2537 33.5064 19.0356 32.0292 19.0356C30.552 19.0356 29.3116 19.268 28.322 19.7373C27.3325 20.2067 26.5418 20.8278 25.9547 21.6006C25.3676 22.3734 24.9463 23.2695 24.6953 24.2841C24.4444 25.2987 24.3213 26.3512 24.3213 27.4417C24.3213 28.5985 24.5059 29.6416 24.8752 30.5803C25.2445 31.5191 25.7748 32.3251 26.4566 32.9983C27.1431 33.6763 27.9527 34.1931 28.8902 34.5534C29.8276 34.9138 30.8692 35.0939 32.0245 35.0939H35.386C35.1919 36.009 34.9268 36.7628 34.6001 37.3507C34.2734 37.9386 33.8662 38.408 33.3738 38.7588C32.8862 39.1097 32.3133 39.3467 31.6599 39.4795C31.0065 39.6122 30.2537 39.6739 29.4062 39.6739C28.5114 39.6739 27.6734 39.4984 26.8922 39.1523V42.3906C27.1336 42.4759 27.4035 42.566 27.7065 42.6513C27.9669 42.7177 28.2841 42.7698 28.6534 42.8125C29.0227 42.8552 29.4394 42.8789 29.8939 42.8789C31.2859 42.8789 32.5169 42.7414 33.5822 42.4711C34.6474 42.1962 35.5565 41.7505 36.3093 41.1294C37.0621 40.5083 37.6776 39.7071 38.1558 38.7256C38.634 37.7442 38.9938 36.5352 39.2352 35.0939H90.8281C91.7845 35.0939 92.7598 34.8474 93.7493 34.359C94.7389 33.8707 95.5201 33.0979 96.0835 32.0548C96.216 32.4057 96.4149 32.7565 96.6895 33.1169C96.9641 33.4772 97.2813 33.8043 97.6506 34.0983C98.0199 34.3922 98.4224 34.634 98.8579 34.8189C99.2935 35.0038 99.7481 35.0987 100.231 35.0987H123.871C123.762 34.7051 123.677 34.3448 123.61 34.0177L123.634 34.0082ZM35.7885 31.723H32.0339C30.6183 31.723 29.6288 31.3531 29.0606 30.6088C28.4925 29.8692 28.2131 28.8119 28.2131 27.437C28.2131 26.8253 28.2794 26.2137 28.4072 25.6069C28.5398 24.9953 28.7623 24.45 29.0748 23.9712C29.392 23.4923 29.7992 23.1035 30.3011 22.8096C30.8029 22.5156 31.4232 22.3687 32.1618 22.3687C32.9004 22.3687 33.5111 22.5062 33.9893 22.7764C34.4675 23.0466 34.851 23.4449 35.1304 23.9712C35.4097 24.4974 35.6086 25.147 35.7175 25.934C35.8263 26.721 35.8784 27.6219 35.8784 28.6459C35.8784 29.7791 35.8453 30.8032 35.779 31.7182L35.7885 31.723Z" fill="#A6431F"/>
<path d="M44.6337 42.5282C44.8183 42.5282 44.9746 42.4666 45.1024 42.3338C45.2303 42.2058 45.2965 42.0493 45.2965 41.8644C45.2965 41.6795 45.2303 41.5231 45.1024 41.3903C44.9746 41.2576 44.8183 41.1959 44.6337 41.1959C44.449 41.1959 44.3023 41.2623 44.1697 41.3903C44.0371 41.5183 43.9756 41.6795 43.9756 41.8644C43.9756 42.0493 44.0419 42.2058 44.1697 42.3338C44.2975 42.4618 44.4538 42.5282 44.6337 42.5282Z" fill="#E2A92B"/>
<path d="M42.7159 42.5282C42.9005 42.5282 43.0568 42.4666 43.1893 42.3338C43.3219 42.2058 43.3835 42.0493 43.3835 41.8644C43.3835 41.6795 43.3172 41.5231 43.1893 41.3903C43.0568 41.2576 42.9005 41.1959 42.7159 41.1959C42.5407 41.1959 42.3892 41.2623 42.2566 41.3903C42.1241 41.5183 42.0625 41.6795 42.0625 41.8644C42.0625 42.0493 42.1288 42.2058 42.2566 42.3338C42.3892 42.4618 42.5407 42.5282 42.7159 42.5282Z" fill="#E2A92B"/>
<path d="M54.4618 51.7307C54.2819 51.7307 54.1304 51.7971 53.9978 51.9251C53.8653 52.0531 53.8037 52.2096 53.8037 52.3945C53.8037 52.5794 53.87 52.7264 53.9978 52.8591C54.1257 52.9871 54.2819 53.0535 54.4618 53.0535C54.6417 53.0535 54.8027 52.9871 54.9353 52.8591C55.0678 52.7311 55.1294 52.5746 55.1294 52.3945C55.1294 52.2143 55.0631 52.0531 54.9353 51.9251C54.8074 51.7971 54.6465 51.7307 54.4618 51.7307Z" fill="#E2A92B"/>
<path d="M52.5546 51.7307C52.3747 51.7307 52.2232 51.7971 52.0906 51.9251C51.958 52.0531 51.8965 52.2096 51.8965 52.3945C51.8965 52.5794 51.9628 52.7264 52.0906 52.8591C52.2184 52.9871 52.3747 53.0535 52.5546 53.0535C52.7345 53.0535 52.8955 52.9871 53.0233 52.8591C53.1512 52.7311 53.2174 52.5746 53.2174 52.3945C53.2174 52.2143 53.1512 52.0531 53.0233 51.9251C52.8955 51.7971 52.7392 51.7307 52.5546 51.7307Z" fill="#E2A92B"/>
<path d="M58.4675 51.7307C58.2829 51.7307 58.1266 51.7971 57.9988 51.9251C57.871 52.0531 57.8047 52.2096 57.8047 52.3945C57.8047 52.5794 57.871 52.7264 57.9988 52.8591C58.1266 52.9871 58.2829 53.0535 58.4675 53.0535C58.6522 53.0535 58.799 52.9871 58.9315 52.8591C59.0594 52.7311 59.1256 52.5746 59.1256 52.3945C59.1256 52.2143 59.0594 52.0531 58.9315 51.9251C58.8037 51.7971 58.6474 51.7307 58.4675 51.7307Z" fill="#E2A92B"/>
<path d="M74.5183 48.9098H72.7475C72.1747 48.9098 71.7485 48.8102 71.4787 48.6111C71.2088 48.4119 71.0715 48.0848 71.0715 47.6297C71.0715 47.1129 70.9958 46.6245 70.849 46.1741C70.7022 45.7237 70.4844 45.3302 70.2051 44.9936C69.9257 44.657 69.5848 44.3915 69.1871 44.2018C68.7847 44.0074 68.3254 43.9126 67.8094 43.9126C67.4779 43.9126 67.1418 43.96 66.8104 44.0501C66.479 44.1402 66.1475 44.2919 65.8256 44.5052C65.5036 44.7186 65.1911 45.0031 64.8881 45.3634C64.5851 45.7237 64.301 46.1694 64.0359 46.6956V39.7641H62.9327V48.9098H60.6696C60.3666 48.9098 60.1109 48.8671 59.8979 48.777C59.6848 48.6869 59.5191 48.5684 59.3865 48.4167C59.254 48.265 59.164 48.0848 59.1119 47.8809C59.0598 47.6771 59.0362 47.4495 59.0362 47.2029V44.6048H57.8951V47.8098C57.8951 48.1464 57.8383 48.4119 57.72 48.6063C57.6016 48.8055 57.3696 48.905 57.0192 48.905H55.6793C55.3763 48.905 55.1207 48.8624 54.9076 48.7723C54.6946 48.6822 54.5288 48.5637 54.3963 48.4119C54.2637 48.2602 54.1737 48.0801 54.1217 47.8762C54.0696 47.6723 54.0459 47.4447 54.0459 47.1982V44.6001H52.9049V47.8051C52.9049 48.1417 52.8481 48.4072 52.7297 48.6016C52.6113 48.8007 52.3793 48.9003 52.029 48.9003H46.3475V46.7857C46.3475 46.378 46.2859 46.0082 46.1581 45.6668C46.0303 45.3302 45.8598 45.0362 45.6325 44.7944C45.4053 44.5527 45.1354 44.363 44.8087 44.2303C44.482 44.0975 44.1175 44.0311 43.7198 44.0311C43.2984 44.0311 42.9102 44.1165 42.5503 44.2919C42.1905 44.4673 41.8828 44.7044 41.6176 44.9983C41.3572 45.2923 41.1536 45.6431 41.0068 46.0414C40.8601 46.4396 40.7891 46.8616 40.7891 47.3025C40.7891 47.6391 40.8459 47.971 40.9548 48.3029C41.0637 48.6348 41.2436 48.9287 41.485 49.1848C41.7265 49.4408 42.0485 49.6541 42.4462 49.8153C42.8439 49.9813 43.3268 50.0619 43.8902 50.0619H52.1189C52.3036 50.0619 52.4835 50.0476 52.6587 50.0192C52.8339 49.9907 52.9948 49.9386 53.1416 49.8627C53.2884 49.7869 53.4257 49.6731 53.5488 49.5214C53.6719 49.3744 53.7855 49.1753 53.8897 48.9335C54.008 49.3412 54.2211 49.6304 54.5288 49.8011C54.8366 49.9718 55.2059 50.0571 55.632 50.0571H57.1092C57.2938 50.0571 57.4738 50.0429 57.6489 50.0145C57.8241 49.986 57.9851 49.9339 58.1319 49.858C58.2786 49.7821 58.4159 49.6684 58.539 49.5166C58.6621 49.3697 58.7758 49.1705 58.8799 48.9287C58.9983 49.3365 59.2114 49.6257 59.5191 49.7964C59.8269 49.967 60.1961 50.0524 60.6223 50.0524H69.1066C69.4712 50.0524 69.8074 49.9576 70.1199 49.7727C70.4323 49.583 70.6833 49.308 70.8774 48.943C71.0336 49.3886 71.2704 49.6873 71.5876 49.8343C71.8906 49.9718 72.2457 50.0429 72.6481 50.0524C72.6576 50.0524 72.6671 50.0524 72.6765 50.0524H75.6641V39.7451H74.523V48.8908L74.5183 48.9098ZM45.2112 48.9098H43.8429C43.5872 48.9098 43.3457 48.8766 43.1137 48.8055C42.8865 48.7343 42.6782 48.63 42.4983 48.4831C42.3183 48.3361 42.1716 48.1417 42.0674 47.9046C41.9632 47.6676 41.9112 47.3784 41.9112 47.037C41.9112 46.7478 41.9585 46.4918 42.0532 46.2642C42.1479 46.0366 42.2757 45.8375 42.4367 45.6668C42.5977 45.4961 42.7776 45.3681 42.9812 45.2875C43.1848 45.2069 43.3931 45.1595 43.6109 45.1595C44.1317 45.1595 44.5246 45.3444 44.7993 45.7095C45.0739 46.0746 45.2112 46.5961 45.2112 47.2646V48.9145V48.9098ZM69.7742 48.6348C69.6748 48.8149 69.457 48.9098 69.1114 48.9098H64.0217C64.0501 48.4214 64.1685 47.9426 64.3673 47.4779C64.5662 47.0133 64.8266 46.6008 65.1485 46.2358C65.4705 45.8754 65.8398 45.5862 66.2659 45.3729C66.6873 45.1595 67.1323 45.0552 67.601 45.0552C68.3302 45.0552 68.8983 45.3065 69.3055 45.8043C69.7127 46.3021 69.9163 46.9517 69.9163 47.7529C69.9163 48.1607 69.8689 48.4546 69.7695 48.6348H69.7742Z" fill="#E2A92B"/>
<path d="M79.0444 39.764H77.9365V50.0713H79.0444V39.764Z" fill="#E2A92B"/>
<path d="M84.8583 42.5282C85.043 42.5282 85.1992 42.4666 85.327 42.3338C85.4549 42.2058 85.5211 42.0493 85.5211 41.8644C85.5211 41.6795 85.4549 41.5231 85.327 41.3903C85.1992 41.2576 85.043 41.1959 84.8583 41.1959C84.6737 41.1959 84.5221 41.2623 84.3943 41.3903C84.2665 41.5231 84.2002 41.6795 84.2002 41.8644C84.2002 42.0493 84.2665 42.2058 84.3943 42.3338C84.5221 42.4618 84.6784 42.5282 84.8583 42.5282Z" fill="#E2A92B"/>
<path d="M86.776 42.5282C86.9606 42.5282 87.1169 42.4666 87.2447 42.3338C87.3725 42.2058 87.4388 42.0493 87.4388 41.8644C87.4388 41.6795 87.3725 41.5231 87.2447 41.3903C87.1169 41.2576 86.9606 41.1959 86.776 41.1959C86.5913 41.1959 86.4398 41.2623 86.3073 41.3903C86.1747 41.5183 86.1084 41.6795 86.1084 41.8644C86.1084 42.0493 86.1747 42.2058 86.3073 42.3338C86.4398 42.4618 86.5961 42.5282 86.776 42.5282Z" fill="#E2A92B"/>
<path d="M87.8414 44.8086C87.6189 44.5668 87.3443 44.3772 87.0176 44.2444C86.6909 44.1117 86.3263 44.0453 85.9286 44.0453C85.4978 44.0453 85.1 44.1306 84.745 44.3061C84.3851 44.4815 84.0774 44.7185 83.817 45.0125C83.5566 45.3064 83.3577 45.6573 83.211 46.0555C83.0689 46.4538 82.9932 46.8758 82.9932 47.3167C82.9932 47.6533 83.05 47.9852 83.1589 48.3171C83.2678 48.6489 83.4477 48.9429 83.6891 49.1989C83.9306 49.4549 84.2526 49.6683 84.6503 49.8295C85.048 49.9954 85.5309 50.076 86.0943 50.076H88.5516V46.7999C88.5516 46.3922 88.49 46.0223 88.3622 45.681C88.2344 45.3444 88.0639 45.0504 87.8366 44.8086H87.8414ZM87.42 48.9097H86.0517C85.796 48.9097 85.5546 48.8765 85.3226 48.8054C85.0953 48.7343 84.887 48.63 84.7071 48.483C84.5272 48.336 84.3804 48.1416 84.2762 47.9046C84.1721 47.6675 84.12 47.3783 84.12 47.037C84.12 46.7477 84.1721 46.4917 84.2715 46.2641C84.3709 46.0366 84.4988 45.8374 84.655 45.6668C84.8112 45.4961 84.9912 45.3681 85.19 45.2875C85.3889 45.2069 85.5972 45.1595 85.8055 45.1595C86.3216 45.1595 86.724 45.3444 87.0034 45.7094C87.2827 46.0745 87.4247 46.596 87.4247 47.2645V48.9144L87.42 48.9097Z" fill="#E2A92B"/>
<path d="M91.6767 42.5282C91.8613 42.5282 92.0176 42.4666 92.1454 42.3338C92.2732 42.2058 92.3395 42.0493 92.3395 41.8644C92.3395 41.6795 92.2732 41.5231 92.1454 41.3903C92.0176 41.2576 91.8613 41.1959 91.6767 41.1959C91.492 41.1959 91.3452 41.2623 91.2127 41.3903C91.0801 41.5183 91.0186 41.6795 91.0186 41.8644C91.0186 42.0493 91.0848 42.2058 91.2127 42.3338C91.3405 42.4618 91.4968 42.5282 91.6767 42.5282Z" fill="#E2A92B"/>
<path d="M109.445 48.3787C109.322 48.2033 109.223 48.0137 109.152 47.8098C109.081 47.6059 109.028 47.402 108.995 47.1887C108.962 46.9753 108.929 46.7667 108.901 46.5581C108.863 46.1883 108.792 45.847 108.683 45.534C108.574 45.2211 108.422 44.9509 108.233 44.728C108.044 44.5052 107.802 44.3298 107.518 44.2065C107.229 44.0832 106.893 44.0216 106.51 44.0216C106.126 44.0216 105.738 44.0738 105.35 44.1733C104.961 44.2729 104.639 44.3582 104.384 44.4293C104.431 44.6237 104.479 44.8039 104.535 44.9698C104.587 45.1358 104.639 45.3207 104.687 45.534C104.952 45.4155 105.222 45.3302 105.492 45.278C105.762 45.2259 105.989 45.2022 106.183 45.2022C107.083 45.2022 107.603 45.7569 107.745 46.8663C107.793 47.1887 107.887 47.5348 108.034 47.9046C108.181 48.2744 108.389 48.6063 108.664 48.9097H101.42C101.538 48.7722 101.652 48.611 101.761 48.4309C101.87 48.2507 101.969 48.0516 102.059 47.8335C102.154 47.6154 102.225 47.3926 102.277 47.1602C102.329 46.9327 102.353 46.7051 102.353 46.4775C102.353 45.6952 102.149 45.0931 101.742 44.6711C101.335 44.2492 100.795 44.0358 100.127 44.0358C99.7534 44.0358 99.3983 44.1164 99.0669 44.2729C98.7354 44.4293 98.4372 44.6711 98.1862 44.9888C97.9306 45.3065 97.7317 45.6952 97.5802 46.1551C97.4287 46.615 97.3529 47.146 97.3529 47.7482V48.905H93.8967C93.5795 48.905 93.3143 48.8623 93.106 48.7722C92.8977 48.6869 92.7273 48.5636 92.5994 48.4119C92.4716 48.2602 92.3816 48.08 92.3248 47.8762C92.2727 47.6723 92.2443 47.4447 92.2443 47.1982V44.6H91.1128V49.9955C91.1128 50.6545 91.0133 51.1476 90.8145 51.47C90.6156 51.7971 90.2416 51.9583 89.6924 51.9583C89.6024 51.9583 89.503 51.9583 89.3941 51.9488C89.2852 51.9393 89.1905 51.9346 89.0958 51.9204L88.7549 51.8587L88.6318 53.0014C88.7407 53.0156 88.8875 53.0345 89.0721 53.0535C89.2568 53.0725 89.4604 53.0867 89.6876 53.0867C90.0995 53.0867 90.4641 53.0108 90.7861 52.8591C91.108 52.7074 91.3732 52.4988 91.5862 52.2285C91.7993 51.9583 91.9602 51.6406 92.0691 51.2803C92.178 50.92 92.2349 50.5312 92.2349 50.1187V49.033C92.3106 49.2653 92.4148 49.4502 92.5473 49.583C92.6799 49.7205 92.8172 49.8248 92.9687 49.9006C93.1202 49.9765 93.2765 50.0192 93.4422 50.0381C93.6079 50.0571 93.7689 50.0666 93.9346 50.0666H97.4003V51.7781C97.4003 52.1859 97.4524 52.5746 97.5565 52.9539C97.6607 53.3332 97.8217 53.6651 98.0395 53.9543C98.2573 54.2435 98.5413 54.4806 98.8964 54.6655C99.2515 54.8504 99.6824 54.9405 100.189 54.9405C100.563 54.9405 100.904 54.8741 101.207 54.7414C101.51 54.6086 101.77 54.4237 101.983 54.1914C102.201 53.9591 102.362 53.6793 102.476 53.3569C102.589 53.0345 102.646 52.6884 102.646 52.3139C102.646 52.0057 102.566 51.6549 102.409 51.2613C102.253 50.8678 101.983 50.4696 101.595 50.0713H109.947V48.8481C109.739 48.7153 109.568 48.5589 109.445 48.3835V48.3787ZM98.3235 47.9852C98.3235 47.3926 98.3803 46.909 98.4892 46.5344C98.5981 46.1599 98.7354 45.8707 98.8964 45.662C99.0574 45.4582 99.2326 45.3159 99.422 45.2401C99.6113 45.1642 99.7865 45.1263 99.9522 45.1263C100.364 45.1263 100.696 45.2685 100.951 45.5577C101.207 45.847 101.335 46.2357 101.335 46.7241C101.335 47.0228 101.297 47.3025 101.221 47.568C101.145 47.8335 101.041 48.0658 100.918 48.2649C100.79 48.4641 100.648 48.6253 100.487 48.7391C100.326 48.8528 100.156 48.9145 99.9806 48.9145H98.3188V47.9899L98.3235 47.9852ZM101.671 52.4466C101.671 52.6363 101.633 52.8212 101.557 53.0014C101.482 53.1815 101.382 53.338 101.259 53.466C101.136 53.5987 100.984 53.703 100.8 53.7836C100.615 53.8642 100.421 53.9022 100.213 53.9022C100.004 53.9022 99.8007 53.8642 99.5829 53.7836C99.3604 53.703 99.1616 53.575 98.9864 53.3996C98.8112 53.2242 98.6644 52.9871 98.5461 52.7027C98.4324 52.4134 98.3709 52.0579 98.3709 51.6406V50.0761H100.179C100.378 50.2183 100.568 50.3937 100.748 50.5976C100.928 50.8015 101.084 51.0101 101.221 51.2234C101.358 51.4368 101.463 51.6501 101.543 51.8682C101.624 52.0863 101.661 52.2807 101.661 52.4561L101.671 52.4466Z" fill="#E2A92B"/>
<path d="M106.543 51.7307C106.363 51.7307 106.211 51.7971 106.079 51.9251C105.946 52.0531 105.885 52.2096 105.885 52.3945C105.885 52.5794 105.951 52.7264 106.079 52.8591C106.207 52.9871 106.363 53.0535 106.543 53.0535C106.723 53.0535 106.884 52.9871 107.012 52.8591C107.139 52.7311 107.206 52.5746 107.206 52.3945C107.206 52.2143 107.139 52.0531 107.012 51.9251C106.884 51.7971 106.728 51.7307 106.543 51.7307Z" fill="#E2A92B"/>
<path d="M115.345 40.0295H115.198C114.796 40.0295 114.507 39.9395 114.327 39.7593C114.147 39.5791 114.057 39.3847 114.057 39.1714C114.057 38.958 114.133 38.7874 114.284 38.6783C114.436 38.5693 114.621 38.5171 114.843 38.5171C114.976 38.5171 115.094 38.5361 115.198 38.5693L115.293 38.0288C115.094 38.0051 114.919 37.9908 114.777 37.9908C114.37 37.9908 114.062 38.0999 113.839 38.3132C113.617 38.5266 113.513 38.7874 113.513 39.0908C113.513 39.1998 113.541 39.3468 113.603 39.5317C113.659 39.7214 113.787 39.8826 113.981 40.0201H113.167V40.5511H115.345V40.0201V40.0295Z" fill="#E2A92B"/>
<path d="M122.157 39.764V48.9097H120.187C119.87 48.9097 119.61 48.867 119.401 48.777C119.193 48.6869 119.027 48.5684 118.9 48.4166C118.772 48.2649 118.682 48.0848 118.63 47.8809C118.578 47.677 118.554 47.4494 118.554 47.2029V39.764H117.399V47.8145C117.399 48.1511 117.342 48.4166 117.233 48.611C117.124 48.8102 116.892 48.9097 116.537 48.9097H114.866V42.6087H113.734V48.9097H111.263V50.076H116.608C116.793 50.076 116.973 50.0666 117.143 50.0429C117.314 50.0191 117.479 49.9717 117.626 49.8911C117.777 49.8153 117.92 49.7015 118.047 49.5545C118.175 49.4075 118.298 49.2037 118.407 48.9524C118.469 49.1752 118.563 49.3554 118.687 49.5024C118.81 49.6493 118.947 49.7631 119.098 49.8485C119.25 49.9338 119.416 49.9907 119.591 50.0239C119.766 50.0571 119.951 50.076 120.14 50.076H123.298V39.7688H122.157V39.764Z" fill="#E2A92B"/>
<path d="M147.051 11.8339H173.66V6.84143H144.102C142.26 6.84143 140.773 8.33489 140.773 10.1745V47.4162C140.773 49.251 142.255 50.7398 144.102 50.7398H148.183C147.639 49.4596 147.345 48.0563 147.345 46.5818C147.345 44.6948 147.833 42.9263 148.69 41.3902H147.051C146.341 41.3902 145.759 40.8118 145.759 40.0959V13.1282C145.759 12.4075 146.341 11.8339 147.051 11.8339Z" fill="#E2A92B"/>
<path d="M201.779 46.065C201.779 46.8093 201.178 47.4115 200.434 47.4115C199.691 47.4115 199.085 46.8093 199.085 46.065C199.085 45.3206 199.691 44.7137 200.434 44.7137C201.178 44.7137 201.779 45.3159 201.779 46.065Z" fill="#111111"/>
<path d="M209.676 6.84143H203.393V11.8291H206.721C207.436 11.8291 208.014 12.4075 208.014 13.1282V40.0911C208.014 40.8118 207.436 41.3902 206.721 41.3902H167.349C168.206 42.9216 168.693 44.69 168.693 46.5818C168.693 48.0563 168.4 49.4596 167.855 50.7398H209.676C211.508 50.7398 213 49.2463 213 47.4115V10.1697C213 8.33015 211.508 6.84143 209.676 6.84143ZM200.434 49.0472C198.791 49.0472 197.456 47.7054 197.456 46.065C197.456 44.4245 198.791 43.0828 200.434 43.0828C202.077 43.0828 203.412 44.4198 203.412 46.065C203.412 47.7102 202.072 49.0472 200.434 49.0472Z" fill="#111111"/>
<path d="M201.779 46.065C201.779 46.8093 201.178 47.4115 200.434 47.4115C199.691 47.4115 199.085 46.8093 199.085 46.065C199.085 45.3206 199.691 44.7137 200.434 44.7137C201.178 44.7137 201.779 45.3159 201.779 46.065Z" fill="#111111"/>
<path d="M194.431 57.2683H185.056V52.6884H168.713V57.2683H159.338C158.514 57.2683 157.847 57.9368 157.847 58.7618V61.7202H195.918V58.7618C195.918 57.9368 195.25 57.2683 194.426 57.2683H194.431Z" fill="#111111"/>
<path d="M154.708 46.5771C154.708 48.4072 156.19 49.8959 158.022 49.8959C159.855 49.8959 161.336 48.4119 161.336 46.5771C161.336 44.7423 159.855 43.2583 158.022 43.2583C156.19 43.2583 154.708 44.7423 154.708 46.5771Z" fill="#A6431F"/>
<path d="M199.133 0.616351H195.421C195.141 0.246541 194.701 0 194.204 0H192.878C192.035 0 191.354 0.682727 191.354 1.52665C191.354 2.37058 192.035 3.0533 192.878 3.0533H194.204C194.706 3.0533 195.141 2.8115 195.421 2.43695H199.133C199.213 2.43695 199.279 2.50333 199.279 2.58393V13.9864C199.279 19.9413 194.441 24.782 188.499 24.782C182.557 24.782 177.718 19.9365 177.718 13.9864V2.58393C177.718 2.50333 177.784 2.43695 177.865 2.43695H181.577C181.856 2.80676 182.296 3.0533 182.793 3.0533H184.119C184.962 3.0533 185.644 2.37058 185.644 1.52665C185.644 0.682727 184.962 0 184.119 0H182.793C182.292 0 181.856 0.2418 181.577 0.616351H177.865C176.776 0.616351 175.89 1.50295 175.89 2.59341V13.9959C175.89 20.6335 181.032 26.0858 187.538 26.5789V30.0352C187.538 33.7333 184.536 36.7392 180.843 36.7392C177.15 36.7392 174.148 33.7286 174.148 30.0352V22.8287C174.148 18.1254 170.327 14.2946 165.626 14.2946C160.924 14.2946 157.104 18.1207 157.104 22.8287V38.0477H156.649C156.412 38.0477 156.209 38.2042 156.142 38.4318L155.963 39.0813C155.915 39.252 155.783 39.3848 155.617 39.4417C155.29 39.5507 154.973 39.6787 154.665 39.8304C154.509 39.911 154.324 39.911 154.168 39.8257L153.586 39.4938C153.377 39.38 153.122 39.4132 152.956 39.5839L151.024 41.5135C150.859 41.6795 150.821 41.9402 150.939 42.1441L151.266 42.732C151.356 42.8837 151.356 43.0686 151.275 43.2298C151.124 43.5333 150.991 43.8509 150.882 44.1781C150.826 44.3487 150.698 44.4768 150.527 44.5242L149.879 44.7091C149.651 44.7707 149.495 44.9793 149.495 45.2164V47.9473C149.495 48.1843 149.651 48.3929 149.879 48.4546L150.527 48.6395C150.698 48.6869 150.826 48.8149 150.882 48.9856C150.991 49.3127 151.124 49.6304 151.275 49.9338C151.356 50.095 151.356 50.2799 151.266 50.4316L150.939 51.0195C150.821 51.2234 150.859 51.4842 151.024 51.6501L152.956 53.5845C153.122 53.7504 153.377 53.7836 153.586 53.6699L154.168 53.338C154.324 53.2526 154.509 53.2526 154.665 53.3332C154.973 53.4849 155.29 53.613 155.617 53.722C155.783 53.7789 155.915 53.9116 155.963 54.0823L156.142 54.7319C156.209 54.9594 156.412 55.1159 156.649 55.1159H159.381C159.618 55.1159 159.821 54.9594 159.888 54.7319L160.067 54.0823C160.115 53.9116 160.247 53.7789 160.413 53.722C160.74 53.613 161.057 53.4849 161.365 53.3332C161.521 53.2526 161.706 53.2526 161.862 53.338L162.444 53.6699C162.653 53.7836 162.908 53.7504 163.074 53.5845L165.006 51.6501C165.171 51.4842 165.209 51.2234 165.091 51.0195L164.764 50.4316C164.679 50.2799 164.679 50.095 164.755 49.9338C164.906 49.6304 165.039 49.3127 165.148 48.9856C165.204 48.8149 165.337 48.6869 165.503 48.6395L166.151 48.4546C166.379 48.3929 166.535 48.1843 166.535 47.9473V45.2164C166.535 44.9793 166.379 44.7707 166.151 44.7091L165.503 44.5242C165.337 44.4768 165.204 44.3487 165.148 44.1781C165.039 43.8509 164.906 43.5333 164.755 43.2298C164.679 43.0686 164.679 42.8837 164.764 42.732L165.091 42.1441C165.209 41.9402 165.171 41.6795 165.006 41.5135L163.074 39.5839C162.908 39.4132 162.653 39.38 162.444 39.4938L161.862 39.8257C161.706 39.911 161.521 39.911 161.365 39.8304C161.057 39.6787 160.74 39.5507 160.413 39.4417C160.247 39.3848 160.115 39.252 160.067 39.0813L159.888 38.4318C159.821 38.2042 159.618 38.0477 159.381 38.0477H158.926V22.8287C158.926 19.1306 161.933 16.1247 165.621 16.1247C169.309 16.1247 172.316 19.1306 172.316 22.8287V30.0352C172.316 34.7384 176.137 38.5693 180.838 38.5693C185.54 38.5693 189.36 34.7432 189.36 30.0352V26.5836C195.908 26.138 201.102 20.6619 201.102 13.9911V2.58867C201.102 1.49821 200.217 0.611613 199.128 0.611613L199.133 0.616351ZM163.921 46.5771C163.921 49.839 161.28 52.4846 158.022 52.4846C154.765 52.4846 152.118 49.839 152.118 46.5771C152.118 43.3152 154.76 40.6696 158.022 40.6696C161.284 40.6696 163.921 43.3152 163.921 46.5771Z" fill="#A6431F"/>
<path d="M182.377 6.85083V7.0547H181.889V9.15502H183.697V7.0547H183.21V6.85083H185.25V7.0547H184.763V11.6109H185.25V11.8148H183.21V11.6109H183.697V9.41105H181.889V11.6109H182.377V11.8148H180.336V11.6109H180.824V7.0547H180.336V6.85083H182.377Z" fill="#E2A92B"/>
<path d="M191.286 6.85083V7.0547H190.827V11.6109H191.286V11.8148H189.303V11.6109H189.762V7.16374H189.734L188.446 11.8196H187.863L186.452 7.159H186.424V11.6157H186.883V11.8196H185.714V11.6157H186.173V7.05943H185.714V6.85557H187.456L188.55 10.5537L189.573 6.85557H191.286V6.85083Z" fill="#E2A92B"/>
<path d="M193.513 11.8148H191.732V11.6109H192.272V7.0547H191.732V6.85083H193.711C195.449 6.85083 196.448 7.4814 196.448 9.24985C196.448 11.2506 195.193 11.8196 193.513 11.8196V11.8148ZM193.626 11.6109C194.81 11.6109 195.298 10.914 195.298 9.26408C195.298 7.44821 194.739 7.0547 193.513 7.0547H193.342V11.6109H193.626Z" fill="#E2A92B"/>
<path d="M43.6677 56.2395V56.4766H43.0285V58.8756H45.5473V56.4766H44.9081V56.2395H47.0387V56.4766H46.3995V61.6823H47.0387V61.9194H44.9081V61.6823H45.5473V59.1695H43.0285V61.6823H43.6677V61.9194H41.5371V61.6823H42.1763V56.4766H41.5371V56.2395H43.6677Z" fill="#111111"/>
<path d="M49.4673 57.9748C50.5989 57.9748 51.2664 58.6007 51.2664 59.9614C51.2664 61.2178 50.6036 61.9953 49.4341 61.9953C48.2647 61.9953 47.6113 61.2652 47.6113 59.9993C47.6113 58.7334 48.3547 57.9701 49.4673 57.9701V57.9748ZM49.4484 58.1692C48.6245 58.1692 48.4588 58.9705 48.4588 59.9471C48.4588 60.9238 48.6293 61.8057 49.4484 61.8057C50.2674 61.8057 50.4142 61.0424 50.4142 59.9661C50.4142 58.9989 50.2532 58.174 49.4484 58.174V58.1692Z" fill="#111111"/>
<path d="M53.1363 55.8318V61.7013H53.7423V61.9099H51.749V61.7013H52.3551V56.0404H51.749V55.827H53.1315L53.1363 55.8318Z" fill="#111111"/>
<path d="M56.0015 57.9748C57.133 57.9748 57.8006 58.6007 57.8006 59.9614C57.8006 61.2178 57.1378 61.9953 55.9683 61.9953C54.7989 61.9953 54.1455 61.2652 54.1455 59.9993C54.1455 58.7334 54.8888 57.9701 56.0015 57.9701V57.9748ZM55.9873 58.1692C55.1587 58.1692 54.9977 58.9705 54.9977 59.9471C54.9977 60.9238 55.1682 61.8057 55.9873 61.8057C56.8063 61.8057 56.9531 61.0424 56.9531 59.9661C56.9531 58.9989 56.7921 58.174 55.9873 58.174V58.1692Z" fill="#111111"/>
<path d="M60.2192 57.9748C61.3508 57.9748 62.0184 58.6007 62.0184 59.9614C62.0184 61.2178 61.3555 61.9953 60.1861 61.9953C59.0167 61.9953 58.3633 61.2652 58.3633 59.9993C58.3633 58.7334 59.1066 57.9701 60.2192 57.9701V57.9748ZM60.205 58.1692C59.3765 58.1692 59.2155 58.9705 59.2155 59.9471C59.2155 60.9238 59.386 61.8057 60.205 61.8057C61.0241 61.8057 61.1709 61.0424 61.1709 59.9661C61.1709 58.9989 61.0099 58.174 60.205 58.174V58.1692Z" fill="#111111"/>
<path d="M63.8892 55.8318V61.7013H64.4952V61.9099H62.502V61.7013H63.108V56.0404H62.502V55.827H63.8844L63.8892 55.8318Z" fill="#111111"/>
<path d="M72.8706 56.2395V56.4766H72.2645V61.6823H72.8706V61.9194H70.8063V61.6823H71.4123V56.5097H71.3792L69.6463 61.9194H69.4048L67.6057 56.5097H67.5726V61.6823H68.1786V61.9194H66.6777V61.6823H67.2838V56.4766H66.6777V56.2395H68.4011L69.812 60.5208L71.1709 56.2395H72.8658H72.8706Z" fill="#111111"/>
<path d="M75.3563 57.9748C76.379 57.9748 76.8856 58.6007 76.8383 59.8239H74.3289V59.9377C74.3289 61.104 74.5941 61.7203 75.4794 61.7203C76.1376 61.7203 76.5021 61.3079 76.6205 60.7294L76.8572 60.7626C76.7199 61.4264 76.3127 61.9953 75.2853 61.9953C74.0401 61.9953 73.4814 61.2083 73.4814 60.023C73.4814 58.6054 74.2816 57.9701 75.3611 57.9701L75.3563 57.9748ZM76.0239 59.6058C76.0713 58.7239 75.8961 58.1692 75.2806 58.1692C74.6651 58.1692 74.3905 58.6813 74.3337 59.6058H76.0239Z" fill="#111111"/>
<path d="M80.2185 61.2888C79.9581 61.7013 79.5888 61.9953 78.9449 61.9953C77.9885 61.9953 77.373 61.3362 77.373 60.0229C77.373 58.7097 78.0359 57.97 79.0822 57.97C79.6504 57.97 79.996 58.1976 80.2138 58.539V56.0404H79.4515V55.827H80.9903V61.6966H81.6436V61.9052H80.2753L80.2091 61.2794L80.2185 61.2888ZM80.2469 60.5445V59.2691C80.2469 58.8234 79.8587 58.2213 79.2243 58.2213C78.5283 58.2213 78.23 58.8045 78.23 59.9898C78.23 61.0281 78.4147 61.6871 79.1296 61.6871C79.6977 61.6871 80.2469 61.2319 80.2469 60.5445Z" fill="#111111"/>
<path d="M83.3863 58.0554V61.7061H84.0018V61.9147H81.999V61.7061H82.6051V58.2688H81.999V58.0601H83.3863V58.0554ZM82.9317 56.249C83.2158 56.249 83.4241 56.3865 83.4241 56.7279C83.4241 57.0218 83.2537 57.221 82.9365 57.221C82.5624 57.221 82.4441 56.9697 82.4441 56.7279C82.4441 56.4671 82.6145 56.249 82.9317 56.249Z" fill="#111111"/>
<path d="M85.2987 59.9139C85.2987 61.1466 85.6396 61.7155 86.4018 61.7155C87.1641 61.7155 87.4482 61.1229 87.5287 60.644L87.7654 60.6867C87.6754 61.175 87.4245 62 86.2172 62C85.0903 62 84.4512 61.303 84.4512 60.0608C84.4512 58.6669 85.2371 57.9747 86.3876 57.9747C87.254 57.9747 87.7417 58.373 87.7417 59.0036C87.7417 59.416 87.5334 59.5962 87.2493 59.5962C86.9652 59.5962 86.7806 59.416 86.7806 59.1031C86.7806 59.0225 86.7901 58.9182 86.8232 58.8044H87.041C87.0552 58.7381 87.0647 58.6764 87.0647 58.6195C87.0647 58.3351 86.8706 58.1739 86.4397 58.1739C85.6538 58.1739 85.3081 58.7191 85.3081 59.9186L85.2987 59.9139Z" fill="#111111"/>
<path d="M90.5209 59.9755V59.3829C90.5209 58.6432 90.3504 58.1644 89.6781 58.1644C89.3609 58.1644 89.0295 58.2545 89.0295 58.5295C89.0295 58.5626 89.0389 58.6006 89.0437 58.6432H89.2709C89.3135 58.7475 89.3372 58.8566 89.3372 58.9609C89.3372 59.2549 89.1431 59.4255 88.8732 59.4255C88.6033 59.4255 88.4518 59.2217 88.4518 58.9135C88.4518 58.3114 89.1005 57.9747 89.8533 57.9747C90.8239 57.9747 91.2926 58.3398 91.2926 59.5061V61.1513C91.2926 61.4832 91.392 61.597 91.5672 61.597C91.7708 61.597 91.8844 61.4832 91.9318 60.8336L92.1164 60.8479C92.0833 61.6586 91.8418 61.9905 91.2831 61.9905C90.8523 61.9905 90.5966 61.7866 90.5398 61.4073C90.3362 61.7819 89.9148 61.9905 89.413 61.9905C88.8069 61.9905 88.2861 61.7487 88.2861 61.0517C88.2861 60.2315 88.9963 59.9755 90.0285 59.9755H90.5161H90.5209ZM90.5209 60.8953V60.1841H90.2226C89.3893 60.1841 89.1289 60.5729 89.1289 61.0517C89.1289 61.45 89.3088 61.6918 89.7018 61.6918C90.1231 61.6918 90.5209 61.3931 90.5209 60.8953Z" fill="#111111"/>
<path d="M93.7456 55.8318V61.7013H94.3517V61.9099H92.3584V61.7013H92.9644V56.0404H92.3584V55.827H93.7409L93.7456 55.8318Z" fill="#111111"/>
<path d="M98.2188 61.9146H96.4434V61.6776H97.1393V56.4718H96.4434V56.2347H98.4414C100.411 56.2347 101.585 56.9554 101.585 58.9751C101.585 61.2604 100.117 61.9099 98.2141 61.9099L98.2188 61.9146ZM98.3514 61.6823C99.9564 61.6823 100.652 60.7483 100.652 59.032C100.652 56.9649 99.8665 56.4765 98.2046 56.4765H97.9963V61.6823H98.3514Z" fill="#111111"/>
<path d="M104.114 57.9748C105.137 57.9748 105.643 58.6007 105.596 59.8239H103.087V59.9377C103.087 61.104 103.352 61.7203 104.237 61.7203C104.895 61.7203 105.26 61.3079 105.378 60.7294L105.615 60.7626C105.478 61.4264 105.071 61.9953 104.043 61.9953C102.798 61.9953 102.239 61.2083 102.239 60.023C102.239 58.6054 103.039 57.9701 104.119 57.9701L104.114 57.9748ZM104.786 59.6058C104.834 58.7239 104.659 58.1692 104.043 58.1692C103.428 58.1692 103.153 58.6813 103.096 59.6058H104.786Z" fill="#111111"/>
<path d="M105.848 58.0554H107.741V58.264H107.079L108.125 60.9712L109.138 58.264H108.499V58.0554H109.867V58.264H109.46L107.992 61.9953H107.779L106.207 58.264H105.843V58.0554H105.848Z" fill="#111111"/>
<path d="M111.476 58.0554V61.7061H112.092V61.9147H110.089V61.7061H110.695V58.2688H110.089V58.0601H111.476V58.0554ZM111.022 56.249C111.306 56.249 111.514 56.3865 111.514 56.7279C111.514 57.0218 111.344 57.221 111.026 57.221C110.652 57.221 110.534 56.9697 110.534 56.7279C110.534 56.4671 110.704 56.249 111.022 56.249Z" fill="#111111"/>
<path d="M113.389 59.9139C113.389 61.1466 113.73 61.7155 114.493 61.7155C115.255 61.7155 115.539 61.1229 115.619 60.644L115.856 60.6867C115.766 61.175 115.515 62 114.308 62C113.181 62 112.542 61.303 112.542 60.0608C112.542 58.6669 113.328 57.9747 114.478 57.9747C115.345 57.9747 115.833 58.373 115.833 59.0036C115.833 59.416 115.624 59.5962 115.34 59.5962C115.056 59.5962 114.871 59.416 114.871 59.1031C114.871 59.0225 114.881 58.9182 114.914 58.8044H115.132C115.146 58.7381 115.155 58.6764 115.155 58.6195C115.155 58.3351 114.961 58.1739 114.531 58.1739C113.745 58.1739 113.399 58.7191 113.399 59.9186L113.389 59.9139Z" fill="#111111"/>
<path d="M118.261 57.9748C119.283 57.9748 119.79 58.6007 119.743 59.8239H117.233V59.9377C117.233 61.104 117.498 61.7203 118.384 61.7203C119.042 61.7203 119.406 61.3079 119.525 60.7294L119.762 60.7626C119.624 61.4264 119.217 61.9953 118.19 61.9953C116.944 61.9953 116.386 61.2083 116.386 60.023C116.386 58.6054 117.186 57.9701 118.265 57.9701L118.261 57.9748ZM118.933 59.6058C118.98 58.7239 118.805 58.1692 118.19 58.1692C117.574 58.1692 117.3 58.6813 117.243 59.6058H118.933Z" fill="#111111"/>
<path d="M120.302 60.6488H120.51C120.557 61.3789 121.173 61.725 121.822 61.725C122.503 61.725 122.787 61.4595 122.787 60.9949C122.787 60.4781 122.286 60.3785 121.736 60.279C121.088 60.1652 120.378 60.0419 120.378 59.1932C120.378 58.52 120.903 57.97 121.713 57.97C122.054 57.97 122.257 58.0411 122.508 58.1549C122.565 58.1786 122.679 58.2118 122.735 58.2118C122.816 58.2118 122.835 58.1217 122.849 57.951H123.029V59.1506H122.825C122.679 58.5105 122.281 58.1928 121.717 58.1928C121.206 58.1928 120.842 58.4204 120.842 58.8187C120.842 59.3118 121.334 59.3924 121.878 59.4919C122.527 59.6152 123.237 59.7669 123.237 60.7246C123.237 61.4548 122.726 61.9905 121.822 61.9905C121.362 61.9905 121.021 61.8672 120.747 61.7155C120.699 61.6823 120.657 61.6681 120.624 61.6681C120.553 61.6681 120.524 61.7345 120.486 61.9905H120.306V60.644L120.302 60.6488Z" fill="#111111"/>
</svg>
