<svg width="208" height="74" viewBox="0 0 208 74" fill="none" xmlns="http://www.w3.org/2000/svg">
<path d="M207.996 63.3542C208.064 65.907 207.13 68.385 205.395 70.2582C203.659 72.1315 201.259 73.2513 198.709 73.3783H9.48064C8.21087 73.3354 6.96219 73.0414 5.80665 72.5133C4.65111 71.9852 3.61161 71.2335 2.74813 70.3015C1.88466 69.3696 1.21433 68.2758 0.775816 67.0834C0.337306 65.891 0.139306 64.6236 0.193246 63.3542V10.0588C0.139306 8.78941 0.337306 7.52196 0.775816 6.32954C1.21433 5.13713 1.88466 4.04338 2.74813 3.11142C3.61161 2.17945 4.65111 1.42774 5.80665 0.899656C6.96219 0.371576 8.21087 0.0775904 9.48064 0.034668L198.951 0.034668C203.841 0.034668 207.996 4.44224 207.996 10.0588V63.3542Z" fill="#A6431F"/>
<path d="M54.4679 47.7077C53.6376 49.6554 52.6566 51.5354 51.5338 53.3305C49.5787 56.2647 46.8885 60.1764 43.2223 60.1764C40.0442 60.1764 39.3106 58.2213 35.1549 58.2213C30.9992 58.2213 30.0216 60.1764 27.0875 60.1764C23.6653 60.1764 20.9751 56.7542 19.02 53.82C13.3972 45.5086 12.9077 35.4845 16.3314 30.3497C17.3803 28.6674 18.8138 27.2583 20.5139 26.2383C22.2139 25.2183 24.1319 24.6167 26.1099 24.4829C29.7776 24.4829 31.9767 26.438 35.1549 26.438C38.0875 26.438 39.8049 24.4829 44.1999 24.4829C45.9525 24.5631 47.6674 25.0194 49.228 25.8209C50.7887 26.6225 52.1586 27.7504 53.2448 29.1282C45.1774 33.2839 46.4005 44.5295 54.4679 47.7077Z" fill="white"/>
<path d="M40.776 20.8168C41.6362 19.7677 42.275 18.5553 42.6538 17.2526C43.0325 15.9499 43.1434 14.584 42.9798 13.2373C40.2059 13.5894 37.6716 14.9888 35.8962 17.149C34.4291 19.1041 32.962 21.7943 33.4516 24.4829C34.8794 24.519 36.2942 24.2035 37.5715 23.5642C38.8487 22.9249 39.9492 21.9814 40.776 20.8168Z" fill="white"/>
<path d="M71.3352 30.1055L63.5117 53.3302H67.1795L69.6241 46.2466H77.2067L79.6513 53.3302H83.319L75.2469 30.1055H71.3352ZM73.0463 33.7732C73.2595 34.864 73.5872 35.9293 74.0238 36.9514L76.2276 43.0637H70.1121L72.3159 36.9514C72.6134 35.9051 72.8571 34.8444 73.0463 33.7732Z" fill="white"/>
<path d="M93.337 35.9723C92.2512 35.9253 91.1704 36.1459 90.1899 36.6147C89.2095 37.0836 88.3592 37.7862 87.7142 38.6609L87.4702 36.4571H84.292V36.7011C84.292 38.1682 84.536 39.6353 84.536 42.0799V59.9306H87.9597V51.6192C88.5904 52.2718 89.3522 52.7834 90.1949 53.1204C91.0377 53.4574 91.9422 53.612 92.849 53.5742C93.8464 53.5786 94.8349 53.3863 95.7579 53.0081C96.6809 52.6299 97.5202 52.0734 98.2278 51.3705C99.8625 49.4701 100.734 47.0305 100.672 44.5245C100.739 42.3234 100.049 40.166 98.7174 38.4122C97.3099 36.9295 95.3797 36.0541 93.337 35.9723ZM92.3594 38.9065C95.5376 38.9065 97.0047 41.8406 97.0047 44.7733C97.0047 48.441 95.2936 50.8856 92.3594 50.8856C91.4089 50.9059 90.4798 50.6023 89.7246 50.0247C88.9695 49.4472 88.4331 48.63 88.2037 47.7074C88.0984 47.3049 88.017 46.8965 87.9597 46.4843V42.3286C88.2635 41.3817 88.846 40.5485 89.631 39.938C90.4159 39.3274 91.3669 38.9679 92.3594 38.9065Z" fill="white"/>
<path d="M111.428 35.9723C110.342 35.9253 109.261 36.1459 108.281 36.6147C107.3 37.0836 106.45 37.7862 105.805 38.6609L105.561 36.4571H102.383V36.7011C102.383 38.1682 102.627 39.6353 102.627 42.0799V59.9306H106.051V51.6192C106.681 52.2718 107.443 52.7834 108.286 53.1204C109.128 53.4574 110.033 53.612 110.94 53.5742C111.937 53.5786 112.926 53.3863 113.849 53.0081C114.772 52.6299 115.611 52.0734 116.319 51.3705C117.953 49.4701 118.825 47.0305 118.763 44.5245C118.83 42.3234 118.14 40.166 116.808 38.4122C116.127 37.6577 115.298 37.0517 114.372 36.6319C113.446 36.2121 112.444 35.9876 111.428 35.9723ZM110.694 38.9065C113.872 38.9065 115.34 41.8406 115.34 44.7733C115.34 48.441 113.628 50.8856 110.694 50.8856C109.744 50.9059 108.815 50.6023 108.059 50.0247C107.304 49.4472 106.768 48.63 106.539 47.7074C106.433 47.3049 106.352 46.8965 106.295 46.4843V42.3286C106.598 41.3817 107.181 40.5485 107.966 39.938C108.751 39.3274 109.702 38.9679 110.694 38.9065Z" fill="white"/>
<path d="M134.165 39.8837C130.987 38.6606 129.758 37.6799 129.758 35.728C129.793 35.2573 129.923 34.7986 130.141 34.3802C130.36 33.9617 130.661 33.5923 131.028 33.2947C131.394 32.9971 131.817 32.7775 132.272 32.6494C132.726 32.5213 133.202 32.4874 133.67 32.5498C135.113 32.5382 136.538 32.8734 137.825 33.5274L138.069 33.7713L139.047 30.8372H138.803C137.224 29.9981 135.457 29.5771 133.67 29.6141C129.262 29.6141 126.09 32.3027 126.09 35.9704C126.09 39.1486 128.045 41.1037 132.202 42.8163C135.137 44.0394 136.358 45.0201 136.358 46.972C136.358 49.1758 134.647 50.6398 131.951 50.6398C130.135 50.6448 128.356 50.1362 126.817 49.1727L126.573 48.9287L125.608 51.8629H125.852C127.624 53.1593 129.769 53.8454 131.965 53.8179C138.077 53.8179 140.276 50.1502 140.276 46.972C140.276 43.5514 138.565 41.5948 134.165 39.8837Z" fill="white"/>
<path d="M146.632 32.5493L143.21 33.5269V36.461H140.766V39.1497H143.21V47.7067C143.051 49.2772 143.488 50.8503 144.433 52.1142C144.866 52.5731 145.401 52.9225 145.995 53.1335C146.589 53.3446 147.224 53.4112 147.849 53.3279C148.77 53.3558 149.686 53.189 150.538 52.8383H150.782L150.538 49.9041H150.294C149.752 50.1224 149.164 50.2061 148.583 50.1481C147.116 50.1481 146.628 49.1706 146.628 47.2139V39.1497H150.783V36.217H146.628L146.632 32.5493Z" fill="white"/>
<path d="M159.589 35.9717C154.7 35.9717 151.277 39.6394 151.277 45.0167C151.277 50.1499 154.7 53.8177 159.345 53.8177C163.501 53.8177 167.656 50.8835 167.656 44.7727C167.715 42.4571 166.932 40.1988 165.452 38.4163C164.69 37.6346 163.778 37.0151 162.77 36.595C161.763 36.1749 160.68 35.9629 159.589 35.9717ZM159.345 38.9059C162.523 38.9059 163.99 42.0841 163.99 44.7727C163.99 48.1949 162.035 50.885 159.345 50.885C156.656 50.885 154.7 48.4404 154.7 44.7727C154.7 41.8385 156.167 38.9059 159.345 38.9059Z" fill="white"/>
<path d="M178.415 36.2163C178.118 36.046 177.78 35.9616 177.438 35.9724C176.493 35.9618 175.568 36.2361 174.781 36.7595C173.995 37.2829 173.385 38.0311 173.03 38.9065V36.4619H169.858V36.7059C169.858 38.173 170.102 39.6401 170.102 41.8391V53.3303H173.526V42.8183C173.626 41.8798 174.045 41.0039 174.712 40.3366C175.38 39.6692 176.255 39.2506 177.194 39.1505H178.661V36.2163H178.415Z" fill="white"/>
<path d="M186.481 35.9722C181.836 35.9722 178.414 39.6399 178.414 45.0171C178.414 50.1504 181.592 53.5741 186.725 53.5741C188.646 53.6245 190.557 53.2922 192.348 52.5966H192.592L191.859 49.908H191.615C190.225 50.4994 188.714 50.7509 187.207 50.6415C186.508 50.6938 185.806 50.5988 185.146 50.3626C184.487 50.1265 183.884 49.7544 183.377 49.2706C182.87 48.7867 182.47 48.2019 182.203 47.5538C181.936 46.9057 181.809 46.2088 181.828 45.5083H193.32V43.7956C193.327 40.3797 191.616 35.9722 186.481 35.9722ZM186.238 38.6608C186.728 38.6358 187.219 38.7095 187.681 38.8774C188.143 39.0453 188.566 39.304 188.926 39.6383C189.711 40.511 190.147 41.6427 190.149 42.8165H182.082C182.113 41.7241 182.56 40.685 183.333 39.9122C184.106 39.1395 185.145 38.6917 186.238 38.6608Z" fill="white"/>
<path d="M63.2672 14.2146C64.3949 14.0029 65.5431 13.9211 66.6894 13.9706C68.447 13.8145 70.1974 14.3397 71.5786 15.4377C72.1611 15.9009 72.6214 16.4994 72.9197 17.1812C73.2179 17.863 73.3449 18.6073 73.2897 19.3494C73.2455 20.9721 72.6409 22.5295 71.5786 23.757C69.9591 24.7416 68.095 25.25 66.1998 25.2241C65.2152 25.2751 64.2283 25.193 63.2656 24.9801L63.2672 14.2146ZM64.9783 23.9931H66.6894C70.1115 23.9931 71.8226 22.282 71.8226 19.3478C71.8226 16.6592 70.1115 15.1921 66.9334 15.1921C66.2718 15.1364 65.6059 15.2195 64.9783 15.4361V23.9931Z" fill="white"/>
<path d="M79.158 25.2149C78.6006 25.2609 78.0399 25.185 77.5148 24.9924C76.9898 24.7998 76.5129 24.4952 76.1175 24.0997C75.722 23.7043 75.4174 23.2274 75.2248 22.7023C75.0322 22.1773 74.9563 21.6165 75.0023 21.0592C74.9839 20.4867 75.0873 19.9168 75.3058 19.3873C75.5242 18.8578 75.8527 18.3808 76.2695 17.9879C76.6862 17.595 77.1817 17.2951 77.7231 17.1081C78.2645 16.9212 78.8395 16.8514 79.4099 16.9034C79.9623 16.8784 80.5138 16.9687 81.0294 17.1687C81.5449 17.3687 82.0131 17.6739 82.4042 18.0649C82.7952 18.4559 83.1004 18.9241 83.3004 19.4396C83.5003 19.9552 83.5907 20.5068 83.5656 21.0592C83.5671 21.6269 83.4522 22.1889 83.2279 22.7104C83.0037 23.232 82.6748 23.702 82.2618 24.0915C81.8487 24.481 81.3601 24.7816 80.8263 24.9748C80.2925 25.168 79.7247 25.2497 79.158 25.2149ZM79.158 23.9918C79.5476 23.9715 79.9288 23.8717 80.2783 23.6984C80.6278 23.5252 80.938 23.2822 81.1899 22.9844C81.4419 22.6866 81.6301 22.3403 81.743 21.967C81.856 21.5936 81.8913 21.2011 81.8467 20.8136C81.8723 20.4423 81.8222 20.0697 81.6993 19.7184C81.5764 19.3671 81.3834 19.0444 81.1319 18.7701C80.8804 18.4958 80.5757 18.2755 80.2364 18.1226C79.897 17.9698 79.5301 17.8876 79.158 17.881C77.203 17.881 76.4694 19.3481 76.4694 21.0592C76.4277 21.4335 76.4666 21.8124 76.5837 22.1704C76.7007 22.5284 76.893 22.8572 77.1478 23.1346C77.4025 23.412 77.7138 23.6317 78.0605 23.7787C78.4073 23.9257 78.7815 23.9968 79.158 23.987V23.9918Z" fill="white"/>
<path d="M86.0021 17.1489L87.2252 21.0606C87.4692 22.0382 87.7148 22.7717 87.9587 23.5053C88.2027 22.7717 88.4483 21.7942 88.6923 21.0606L90.1578 17.1489H91.6249L93.092 21.0606C93.1362 21.9745 93.3008 22.8785 93.5815 23.7493C93.8255 23.0157 94.0711 22.0382 94.3151 21.0606L95.5366 17.1489H97.0037L94.0695 24.9724H92.6024L91.1353 21.3046C91.0912 20.3908 90.9266 19.4868 90.6458 18.616C90.4018 19.5936 90.1562 20.3271 89.9122 21.3046L88.4452 24.9724H86.9781L84.291 17.1489H86.0021Z" fill="white"/>
<path d="M98.7168 19.3472V17.1434H100.184V18.3665C100.513 17.8967 100.955 17.5166 101.468 17.2609C101.982 17.0052 102.551 16.882 103.124 16.9026C103.566 16.892 104.004 16.9753 104.411 17.1469C104.818 17.3185 105.184 17.5745 105.484 17.898C105.785 18.2215 106.013 18.6051 106.154 19.0235C106.295 19.4418 106.346 19.8854 106.303 20.3248V24.97H104.584V20.3248C104.584 19.1017 104.094 17.8801 102.629 17.8801C102.16 17.8911 101.704 18.0347 101.314 18.2944C100.924 18.5541 100.616 18.9192 100.425 19.3472V24.97H98.7168V19.3472Z" fill="white"/>
<path d="M108.739 13.481H110.45V25.2161H108.739V13.481Z" fill="white"/>
<path d="M116.562 25.2149C116.005 25.2609 115.444 25.185 114.919 24.9924C114.394 24.7998 113.917 24.4952 113.522 24.0997C113.126 23.7043 112.822 23.2274 112.629 22.7023C112.437 22.1773 112.361 21.6165 112.407 21.0592C112.388 20.4867 112.492 19.9168 112.71 19.3873C112.929 18.8578 113.257 18.3808 113.674 17.9879C114.091 17.595 114.586 17.2951 115.127 17.1081C115.669 16.9212 116.244 16.8514 116.814 16.9034C117.367 16.8784 117.918 16.9687 118.434 17.1687C118.949 17.3687 119.417 17.6739 119.808 18.0649C120.199 18.4559 120.505 18.9241 120.705 19.4396C120.905 19.9552 120.995 20.5068 120.97 21.0592C120.99 21.6322 120.888 22.203 120.671 22.7334C120.453 23.2639 120.124 23.7417 119.707 24.1351C119.29 24.5285 118.794 24.8283 118.251 25.0145C117.709 25.2007 117.133 25.269 116.562 25.2149ZM116.814 23.987C117.202 23.9651 117.581 23.8642 117.929 23.6906C118.276 23.517 118.585 23.2744 118.835 22.9774C119.086 22.6805 119.273 22.3356 119.386 21.9638C119.498 21.592 119.534 21.2012 119.49 20.8152C119.516 20.4448 119.467 20.073 119.344 19.7224C119.222 19.3717 119.031 19.0495 118.78 18.7751C118.53 18.5008 118.227 18.2801 117.889 18.1264C117.551 17.9727 117.185 17.8892 116.814 17.881C114.859 17.881 114.126 19.3481 114.126 21.0592C114.084 21.4335 114.123 21.8124 114.24 22.1704C114.357 22.5284 114.549 22.8572 114.804 23.1346C115.059 23.412 115.37 23.6317 115.717 23.7787C116.063 23.9257 116.438 23.9968 116.814 23.987Z" fill="white"/>
<path d="M129.276 23.0151C129.22 23.6767 129.303 24.3426 129.52 24.9702H128.052L127.809 23.9926C127.495 24.4008 127.085 24.7258 126.617 24.9391C126.148 25.1523 125.634 25.2473 125.12 25.2157C124.473 25.2707 123.831 25.0717 123.329 24.6609C122.826 24.25 122.504 23.6597 122.43 23.0151C122.43 21.06 124.385 20.0809 127.809 20.0809V19.8369C127.849 19.5806 127.824 19.3181 127.736 19.0741C127.648 18.8301 127.499 18.6124 127.303 18.4415C127.108 18.2706 126.873 18.1519 126.619 18.0967C126.366 18.0415 126.102 18.0515 125.853 18.1258C125.094 18.1441 124.345 18.3104 123.65 18.6154L123.406 17.6378C123.65 17.1483 124.873 16.9043 125.85 16.9043C126.293 16.842 126.745 16.8793 127.171 17.0134C127.598 17.1474 127.99 17.375 128.317 17.6794C128.645 17.9838 128.901 18.3574 129.066 18.7731C129.231 19.1888 129.302 19.6361 129.272 20.0825L129.276 23.0151ZM127.809 21.0584C126.097 21.0584 124.141 21.3024 124.141 22.7695C124.134 22.9641 124.167 23.158 124.238 23.3392C124.309 23.5204 124.417 23.6849 124.555 23.8226C124.692 23.9603 124.857 24.0681 125.038 24.1393C125.219 24.2105 125.413 24.2437 125.608 24.2366C126.052 24.2525 126.491 24.147 126.88 23.9314C127.268 23.7159 127.59 23.3985 127.812 23.0135V21.0584H127.809Z" fill="white"/>
<path d="M139.298 13.481V24.9721H137.831V23.505C137.541 24.012 137.108 24.4218 136.586 24.6829C136.064 24.944 135.476 25.0447 134.897 24.9721C134.394 24.9737 133.896 24.8717 133.434 24.6725C132.972 24.4733 132.556 24.1811 132.212 23.8141C131.868 23.4472 131.603 23.0133 131.434 22.5395C131.265 22.0658 131.195 21.5623 131.229 21.0604C131.176 20.5224 131.24 19.9795 131.414 19.468C131.589 18.9564 131.871 18.4882 132.241 18.0946C132.612 17.701 133.062 17.3912 133.562 17.186C134.062 16.9808 134.6 16.8849 135.141 16.9047C135.658 16.8448 136.181 16.9271 136.655 17.1426C137.129 17.3581 137.535 17.6987 137.829 18.1278V13.481H139.298ZM137.831 20.3269V19.5933C137.694 19.1129 137.408 18.6886 137.013 18.382C136.619 18.0755 136.137 17.9026 135.638 17.8885C135.261 17.8787 134.886 17.9499 134.539 18.0973C134.192 18.2447 133.88 18.4649 133.625 18.743C133.37 19.0212 133.178 19.3507 133.061 19.7095C132.945 20.0683 132.907 20.4479 132.949 20.8227C132.908 21.1969 132.947 21.5757 133.064 21.9335C133.181 22.2913 133.374 22.6199 133.628 22.8971C133.883 23.1744 134.194 23.3938 134.541 23.5408C134.888 23.6877 135.262 23.7587 135.638 23.749C136.161 23.7075 136.663 23.527 137.093 23.2262C137.523 22.9254 137.865 22.5151 138.083 22.0379V20.3269H137.831Z" fill="white"/>
<path d="M149.566 25.2149C149.009 25.2609 148.448 25.185 147.923 24.9924C147.398 24.7998 146.921 24.4952 146.526 24.0997C146.13 23.7043 145.826 23.2274 145.633 22.7023C145.44 22.1773 145.365 21.6165 145.411 21.0592C145.392 20.4867 145.496 19.9168 145.714 19.3873C145.932 18.8578 146.261 18.3808 146.678 17.9879C147.094 17.595 147.59 17.2951 148.131 17.1081C148.673 16.9212 149.248 16.8514 149.818 16.9034C150.37 16.8784 150.922 16.9687 151.438 17.1687C151.953 17.3687 152.421 17.6739 152.812 18.0649C153.203 18.4559 153.509 18.9241 153.709 19.4396C153.909 19.9552 153.999 20.5068 153.974 21.0592C153.975 21.6269 153.86 22.1889 153.636 22.7104C153.412 23.232 153.083 23.702 152.67 24.0915C152.257 24.481 151.768 24.7816 151.235 24.9748C150.701 25.168 150.133 25.2497 149.566 25.2149ZM149.566 23.9918C149.956 23.9715 150.337 23.8717 150.686 23.6984C151.036 23.5252 151.346 23.2822 151.598 22.9844C151.85 22.6866 152.038 22.3403 152.151 21.967C152.264 21.5936 152.299 21.2011 152.255 20.8136C152.281 20.4423 152.23 20.0697 152.108 19.7184C151.985 19.3671 151.792 19.0444 151.54 18.7701C151.289 18.4958 150.984 18.2755 150.645 18.1226C150.305 17.9698 149.938 17.8876 149.566 17.881C149.175 17.8966 148.791 17.9934 148.44 18.1652C148.088 18.3369 147.776 18.58 147.523 18.8788C147.27 19.1777 147.082 19.5258 146.971 19.9012C146.86 20.2765 146.828 20.6708 146.878 21.0592C146.857 21.4291 146.911 21.7993 147.036 22.1481C147.16 22.497 147.354 22.8172 147.604 23.0901C147.855 23.363 148.158 23.5829 148.495 23.737C148.832 23.891 149.196 23.9761 149.566 23.987V23.9918Z" fill="white"/>
<path d="M155.922 19.3472V17.1434H157.389V18.3665C157.718 17.8967 158.16 17.5166 158.673 17.2609C159.187 17.0052 159.756 16.882 160.329 16.9026C160.771 16.892 161.209 16.9753 161.616 17.1469C162.023 17.3185 162.389 17.5745 162.689 17.898C162.99 18.2215 163.218 18.6051 163.359 19.0235C163.5 19.4418 163.551 19.8854 163.508 20.3248V24.97H161.789V20.3248C161.789 19.1017 161.299 17.8801 159.834 17.8801C159.365 17.8911 158.909 18.0347 158.519 18.2944C158.129 18.5541 157.821 18.9192 157.63 19.3472V24.97H155.922V19.3472Z" fill="white"/>
<path d="M171.815 15.1919V17.147H174.019V18.1245H171.815V22.2755C171.815 23.253 172.059 23.7426 173.038 23.7426H174.016V24.7201C173.535 24.8434 173.044 24.9251 172.549 24.9641C171.941 24.9878 171.341 24.8163 170.838 24.4746C170.574 24.1747 170.374 23.8253 170.248 23.4468C170.122 23.0683 170.073 22.6685 170.104 22.2708V18.1261H168.881V17.147H170.348V15.6815L171.815 15.1919Z" fill="white"/>
<path d="M175.971 13.481H177.682V18.3702C177.971 17.9189 178.401 17.5754 178.905 17.3927C179.424 17.0862 180.013 16.9177 180.616 16.9031C181.057 16.8925 181.496 16.9758 181.903 17.1475C182.31 17.3192 182.676 17.5754 182.976 17.8991C183.277 18.2227 183.505 18.6066 183.646 19.0251C183.787 19.4436 183.838 19.8874 183.794 20.3269V24.9721H182.083V20.5646C182.083 19.3415 181.594 18.1199 180.128 18.1199C179.659 18.1309 179.204 18.2745 178.814 18.5342C178.423 18.7939 178.115 19.159 177.924 19.587V25.2098H176.215V13.481H175.971Z" fill="white"/>
<path d="M186.971 21.3047C186.959 21.6825 187.028 22.0584 187.175 22.4068C187.322 22.7552 187.542 23.0677 187.82 23.3231C188.099 23.5784 188.43 23.7705 188.789 23.8862C189.149 24.0019 189.53 24.0384 189.905 23.9933C190.747 24.0284 191.586 23.8605 192.35 23.5038L192.594 24.4813C191.662 24.8521 190.661 25.0191 189.66 24.9708C189.11 25.0262 188.554 24.967 188.028 24.797C187.503 24.6269 187.018 24.3498 186.604 23.983C186.191 23.6162 185.858 23.1677 185.627 22.6658C185.395 22.1639 185.27 21.6196 185.26 21.067C185.208 20.4966 185.278 19.9216 185.465 19.3802C185.652 18.8388 185.951 18.3433 186.344 17.9266C186.737 17.5098 187.214 17.1814 187.744 16.9629C188.273 16.7444 188.843 16.641 189.416 16.6594C189.907 16.6227 190.4 16.6924 190.861 16.8638C191.323 17.0351 191.742 17.304 192.091 17.6522C192.439 18.0004 192.708 18.4196 192.879 18.8813C193.05 19.3429 193.12 19.8361 193.083 20.3272V21.067L186.971 21.3047ZM191.616 20.3272C191.647 20.0187 191.614 19.7071 191.517 19.4125C191.421 19.1179 191.264 18.8467 191.056 18.6164C190.849 18.3862 190.595 18.2019 190.312 18.0755C190.029 17.9491 189.722 17.8834 189.412 17.8825C189.086 17.8622 188.76 17.9115 188.454 18.0273C188.148 18.143 187.871 18.3224 187.64 18.5536C187.409 18.7849 187.23 19.0626 187.114 19.3684C186.999 19.6742 186.95 20.001 186.971 20.3272H191.616Z" fill="white"/>
</svg>
