<svg width="25" height="24" viewBox="0 0 25 24" fill="none" xmlns="http://www.w3.org/2000/svg">
<path fill-rule="evenodd" clip-rule="evenodd" d="M2.49993 1.25008C2.08571 1.25008 1.74993 1.58586 1.74993 2.00008C1.74993 2.41429 2.08571 2.75008 2.49993 2.75008L3.46593 2.75008C4.08181 2.75008 4.59632 3.15584 4.73685 3.70192L7.71211 15.2635C7.80421 15.6214 7.72658 16.0027 7.4945 16.3033L6.75459 17.2617C6.67073 17.254 6.58579 17.2501 6.49993 17.2501C4.98114 17.2501 3.74993 18.4813 3.74993 20.0001C3.74993 21.5189 4.98114 22.7501 6.49993 22.7501C7.7587 22.7501 8.81995 21.9043 9.14641 20.7501L14.8534 20.7501C15.1799 21.9043 16.2411 22.7501 17.4999 22.7501C19.0187 22.7501 20.2499 21.5189 20.2499 20.0001C20.2499 18.4813 19.0187 17.2501 17.4999 17.2501C16.2411 17.2501 15.1799 18.0958 14.8534 19.2501L9.14641 19.2501C8.98671 18.6854 8.65119 18.1946 8.20273 17.8405L8.68183 17.22C8.80485 17.0606 8.90868 16.8901 8.99254 16.7117L17.2824 16.0209C18.6389 15.9078 19.7311 15.6972 20.4745 14.974C21.2179 14.2508 21.4585 13.1648 21.6088 11.8118L22.1713 6.75008L22.4999 6.75008C22.9141 6.75008 23.2499 6.41429 23.2499 6.00008C23.2499 5.58586 22.9141 5.25008 22.4999 5.25008L6.68412 5.25008L6.18952 3.32809C5.87181 2.0935 4.73941 1.25008 3.46593 1.25008L2.49993 1.25008ZM7.07014 6.75008L9.16478 14.8896C9.19017 14.9883 9.2098 15.0876 9.22379 15.1872L17.1578 14.5261C18.5297 14.4117 19.108 14.2107 19.4286 13.8988C19.7491 13.587 19.966 13.0144 20.118 11.6462L20.662 6.75008L7.07014 6.75008ZM6.49993 18.7501C5.80957 18.7501 5.24993 19.3097 5.24993 20.0001C5.24993 20.6904 5.80957 21.2501 6.49993 21.2501C7.19028 21.2501 7.74993 20.6904 7.74993 20.0001C7.74993 19.3097 7.19028 18.7501 6.49993 18.7501ZM17.4999 21.2501C16.8096 21.2501 16.2499 20.6904 16.2499 20.0001C16.2499 19.3097 16.8096 18.7501 17.4999 18.7501C18.1903 18.7501 18.7499 19.3097 18.7499 20.0001C18.7499 20.6904 18.1903 21.2501 17.4999 21.2501Z" fill="#777777"/>
</svg>
