<svg width="208" height="74" viewBox="0 0 208 74" fill="none" xmlns="http://www.w3.org/2000/svg">
<path d="M0.693359 10.0483L0.692383 10.0376C0.641251 8.83432 0.829466 7.6328 1.24512 6.50244C1.66083 5.37203 2.29667 4.33518 3.11523 3.45166C3.93383 2.56813 4.91916 1.85464 6.01465 1.354C6.97301 0.916074 7.9991 0.648506 9.04688 0.561035L9.49707 0.534668H198.951C203.523 0.534668 207.496 4.67582 207.496 10.0591V63.3677C207.56 65.7898 206.674 68.141 205.027 69.9185C203.383 71.6927 201.112 72.755 198.696 72.8784H9.49707C8.29346 72.8377 7.10999 72.5587 6.01465 72.0581C4.91917 71.5575 3.93382 70.845 3.11523 69.9614C2.29664 69.0779 1.66084 68.0411 1.24512 66.9106C0.829447 65.7803 0.64126 64.5788 0.692383 63.3755L0.693359 63.3647V10.0483Z" fill="white" stroke="#A6431F"/>
<mask id="mask0_2007_3466" style="mask-type:luminance" maskUnits="userSpaceOnUse" x="15" y="16" width="40" height="46">
<path d="M45.177 32.5498L35.8896 27.1709C35.8896 27.1709 18.774 17.3924 17.7949 16.6589C16.8158 15.9253 15.8398 16.6589 15.8398 17.882V60.4198C15.8318 60.5933 15.8744 60.7653 15.9622 60.9151C16.0501 61.0649 16.1795 61.1859 16.3349 61.2636C16.4902 61.3412 16.6647 61.3722 16.8372 61.3526C17.0098 61.333 17.1729 61.2638 17.3069 61.1533C18.2844 60.6638 35.8817 50.3957 35.8817 50.3957L45.1691 45.0169C45.1691 45.0169 53.2365 40.3716 54.2141 39.8836C54.4254 39.8218 54.6111 39.6932 54.7432 39.5169C54.8753 39.3407 54.9467 39.1264 54.9467 38.9061C54.9467 38.6859 54.8753 38.4715 54.7432 38.2953C54.6111 38.1191 54.4254 37.9904 54.2141 37.9286C53.4884 37.439 45.177 32.5498 45.177 32.5498Z" fill="white"/>
</mask>
<g mask="url(#mask0_2007_3466)">
<path d="M15.8398 15.9248V61.8895L39.0646 38.9072L15.8398 15.9248Z" fill="url(#paint0_linear_2007_3466)"/>
</g>
<mask id="mask1_2007_3466" style="mask-type:luminance" maskUnits="userSpaceOnUse" x="15" y="16" width="40" height="46">
<path d="M45.177 32.5498L35.8896 27.1709C35.8896 27.1709 18.774 17.3924 17.7949 16.6589C16.8158 15.9253 15.8398 16.6589 15.8398 17.882V60.4198C15.8318 60.5933 15.8744 60.7653 15.9622 60.9151C16.0501 61.0649 16.1795 61.1859 16.3349 61.2636C16.4902 61.3412 16.6647 61.3722 16.8372 61.3526C17.0098 61.333 17.1729 61.2638 17.3069 61.1533C18.2844 60.6638 35.8817 50.3957 35.8817 50.3957L45.1691 45.0169C45.1691 45.0169 53.2365 40.3716 54.2141 39.8836C54.4254 39.8218 54.6111 39.6932 54.7432 39.5169C54.8753 39.3407 54.9467 39.1264 54.9467 38.9061C54.9467 38.6859 54.8753 38.4715 54.7432 38.2953C54.6111 38.1191 54.4254 37.9904 54.2141 37.9286C53.4884 37.439 45.177 32.5498 45.177 32.5498Z" fill="white"/>
</mask>
<g mask="url(#mask1_2007_3466)">
<path d="M45.177 32.5496L35.8896 27.1708L15.8398 15.6812V15.9251L39.0646 38.9075L45.177 32.5496Z" fill="url(#paint1_linear_2007_3466)"/>
</g>
<mask id="mask2_2007_3466" style="mask-type:luminance" maskUnits="userSpaceOnUse" x="15" y="16" width="40" height="46">
<path d="M45.177 32.5498L35.8896 27.1709C35.8896 27.1709 18.774 17.3924 17.7949 16.6589C16.8158 15.9253 15.8398 16.6589 15.8398 17.882V60.4198C15.8318 60.5933 15.8744 60.7653 15.9622 60.9151C16.0501 61.0649 16.1795 61.1859 16.3349 61.2636C16.4902 61.3412 16.6647 61.3722 16.8372 61.3526C17.0098 61.333 17.1729 61.2638 17.3069 61.1533C18.2844 60.6638 35.8817 50.3957 35.8817 50.3957L45.1691 45.0169C45.1691 45.0169 53.2365 40.3716 54.2141 39.8836C54.4254 39.8218 54.6111 39.6932 54.7432 39.5169C54.8753 39.3407 54.9467 39.1264 54.9467 38.9061C54.9467 38.6859 54.8753 38.4715 54.7432 38.2953C54.6111 38.1191 54.4254 37.9904 54.2141 37.9286C53.4884 37.439 45.177 32.5498 45.177 32.5498Z" fill="white"/>
</mask>
<g mask="url(#mask2_2007_3466)">
<path d="M15.8398 61.8884L35.8864 50.3972L45.1738 45.0184L39.0646 38.906L15.8398 61.8884Z" fill="url(#paint2_linear_2007_3466)"/>
</g>
<mask id="mask3_2007_3466" style="mask-type:luminance" maskUnits="userSpaceOnUse" x="15" y="16" width="40" height="46">
<path d="M45.177 32.5498L35.8896 27.1709C35.8896 27.1709 18.774 17.3924 17.7949 16.6589C16.8158 15.9253 15.8398 16.6589 15.8398 17.882V60.4198C15.8318 60.5933 15.8744 60.7653 15.9622 60.9151C16.0501 61.0649 16.1795 61.1859 16.3349 61.2636C16.4902 61.3412 16.6647 61.3722 16.8372 61.3526C17.0098 61.333 17.1729 61.2638 17.3069 61.1533C18.2844 60.6638 35.8817 50.3957 35.8817 50.3957L45.1691 45.0169C45.1691 45.0169 53.2365 40.3716 54.2141 39.8836C54.4254 39.8218 54.6111 39.6932 54.7432 39.5169C54.8753 39.3407 54.9467 39.1264 54.9467 38.9061C54.9467 38.6859 54.8753 38.4715 54.7432 38.2953C54.6111 38.1191 54.4254 37.9904 54.2141 37.9286C53.4884 37.439 45.177 32.5498 45.177 32.5498Z" fill="white"/>
</mask>
<g mask="url(#mask3_2007_3466)">
<path d="M45.1768 32.5493L39.0645 38.9057L45.1768 45.018L55.9344 38.9057L45.1768 32.5493Z" fill="url(#paint3_linear_2007_3466)"/>
</g>
<path d="M162.036 47.7127C161.199 47.6921 160.372 47.5264 159.592 47.2231C158.866 46.9511 158.26 46.4315 157.88 45.756H157.636C157.636 46.4896 157.88 47.2231 157.88 47.9598V53.5826H155.924V34.2617H157.635L157.879 35.9728C158.318 35.3489 158.906 34.8447 159.59 34.5057C160.37 34.2024 161.198 34.0368 162.035 34.0162C162.812 33.9602 163.593 34.0856 164.314 34.3826C165.035 34.6795 165.677 35.1398 166.19 35.7272C167.251 37.2209 167.768 39.0321 167.657 40.8605C167.768 42.6888 167.251 44.5001 166.19 45.9937C165.664 46.5639 165.019 47.0129 164.302 47.3097C163.585 47.6065 162.812 47.744 162.036 47.7127ZM161.547 35.7335C160.994 35.677 160.437 35.7593 159.924 35.9729C159.412 36.1865 158.961 36.5246 158.612 36.9566C157.934 38.0571 157.594 39.3324 157.635 40.6244V41.1013C157.487 42.5569 157.831 44.0202 158.612 45.257C158.994 45.6483 159.45 45.9584 159.954 46.1686C160.459 46.3788 161 46.4848 161.547 46.4801C162.084 46.4926 162.615 46.3636 163.087 46.1061C163.559 45.8486 163.955 45.4717 164.235 45.0131C164.987 43.8542 165.331 42.4775 165.211 41.1013C165.33 39.7249 164.986 38.3483 164.234 37.1896C163.975 36.7125 163.583 36.3206 163.106 36.0613C162.63 35.8021 162.088 35.6866 161.547 35.7288V35.7335Z" fill="#A6431F"/>
<path d="M172.059 47.4636H170.104V28.3945H172.059V47.4636Z" fill="#A6431F"/>
<path d="M183.791 47.4636L183.305 45.5085C182.571 46.2421 182.081 46.9756 181.35 47.2196C180.571 47.5233 179.746 47.69 178.911 47.7123C177.766 47.8033 176.629 47.4537 175.733 46.7348C175.342 46.3535 175.032 45.897 174.821 45.3928C174.611 44.8885 174.505 44.3469 174.51 43.8006C174.51 41.112 176.714 39.6449 181.11 39.6449H183.314V38.9113C183.334 38.0395 183.077 37.1837 182.58 36.4667C182.281 36.2037 181.931 36.0032 181.553 35.8773C181.174 35.7513 180.774 35.7023 180.377 35.7332C179.087 35.7097 177.816 36.0483 176.709 36.7107L176.219 34.9996C176.913 34.6461 177.656 34.3988 178.423 34.2661C179.219 34.0516 180.045 33.9692 180.868 34.0221C182.168 33.8991 183.469 34.2459 184.536 34.9996C185.373 35.9379 185.811 37.1654 185.759 38.4218V47.4668L183.791 47.4636ZM179.146 46.2405C179.676 46.2864 180.209 46.2233 180.714 46.0552C181.219 45.8871 181.683 45.6175 182.08 45.263C182.434 44.8665 182.704 44.4016 182.872 43.897C183.04 43.3924 183.103 42.8587 183.057 42.3288V41.101H181.104C179.915 40.9948 178.722 41.2505 177.682 41.8345C177.4 42.0422 177.167 42.3088 176.999 42.6158C176.831 42.9227 176.732 43.2626 176.709 43.6118C176.686 43.9609 176.739 44.3109 176.865 44.6374C176.991 44.9639 177.186 45.2591 177.438 45.5022C177.652 45.742 177.917 45.9322 178.212 46.0597C178.508 46.1871 178.827 46.2488 179.149 46.2405H179.146Z" fill="#A6431F"/>
<path d="M186.482 34.2611H188.686L191.62 41.8405C192.104 43.0363 192.513 44.2613 192.843 45.5083C192.932 44.7307 193.182 43.9801 193.577 43.3045C193.821 42.3269 195.044 39.1488 196.999 34.0171H199.203L193.336 49.4184C193.008 50.6466 192.325 51.7506 191.372 52.5919C191.012 52.9262 190.588 53.1849 190.126 53.3528C189.665 53.5207 189.174 53.5944 188.683 53.5694C188.101 53.6274 187.514 53.5437 186.972 53.3254V51.6191C187.462 51.6191 187.95 51.863 188.439 51.863C189.143 51.8887 189.832 51.6534 190.374 51.2022C190.915 50.751 191.271 50.1158 191.373 49.4184L192.107 47.4633L186.482 34.2611Z" fill="#A6431F"/>
<path d="M124.386 35.484C124.987 35.8901 125.48 36.4373 125.821 37.0777C126.162 37.7182 126.341 38.4324 126.343 39.158C126.292 39.9618 126.042 40.7402 125.615 41.4231C125.188 42.1061 124.598 42.672 123.898 43.0698C123.683 43.2521 123.507 43.4762 123.381 43.7283C123.255 43.9804 123.182 44.2555 123.165 44.5368C123.178 44.7851 123.252 45.0263 123.379 45.2395C123.507 45.4527 123.685 45.6314 123.898 45.7599L124.876 46.4935C125.576 46.8913 126.166 47.4572 126.593 48.1401C127.02 48.823 127.27 49.6015 127.32 50.4052C127.32 53.0938 124.876 55.784 119.986 55.784C115.831 55.784 113.874 53.829 113.874 51.8723C113.901 51.1562 114.12 50.4606 114.508 49.8579C114.896 49.2552 115.438 48.7674 116.078 48.4454C117.752 47.6274 119.593 47.2087 121.457 47.2223C121.195 46.9724 120.994 46.6669 120.867 46.3285C120.74 45.99 120.691 45.6273 120.723 45.2672C120.723 44.7777 120.967 44.5337 120.967 44.2897H119.99C119.392 44.3175 118.795 44.2243 118.235 44.0157C117.674 43.807 117.162 43.4873 116.728 43.0756C116.294 42.664 115.948 42.1689 115.71 41.6201C115.472 41.0713 115.348 40.4802 115.344 39.8821C115.34 39.1822 115.491 38.49 115.787 37.8557C116.083 37.2213 116.516 36.6607 117.055 36.2144C118.557 35.1744 120.361 34.6598 122.185 34.7505H128.052L126.341 35.728H124.386V35.484ZM122.431 47.9527H121.697C120.698 47.9443 119.705 48.1099 118.763 48.4423C118.093 48.6002 117.492 48.9717 117.051 49.501C116.61 50.0302 116.353 50.6884 116.319 51.3765C116.319 53.3315 118.274 54.7986 121.208 54.7986C123.897 54.7986 125.364 53.5755 125.364 51.8644C125.364 50.1534 124.386 49.4182 122.431 47.9527ZM123.161 42.5739C123.419 42.3215 123.619 42.0156 123.745 41.6778C123.872 41.34 123.923 40.9785 123.895 40.6188C123.895 38.6637 122.672 35.4856 120.473 35.4856C120.09 35.4664 119.709 35.5464 119.367 35.7176C119.024 35.8889 118.732 36.1457 118.518 36.4631C118.028 36.9945 117.765 37.6959 117.784 38.4182C117.784 40.3733 118.762 43.3074 121.206 43.3074C121.929 43.3266 122.63 43.0635 123.161 42.5739Z" fill="#A6431F"/>
<path d="M106.784 47.4633C105.898 47.4935 105.014 47.3452 104.186 47.0273C103.358 46.7094 102.602 46.2283 101.964 45.6126C101.325 44.997 100.817 44.2593 100.469 43.4434C100.121 42.6275 99.9407 41.75 99.9385 40.863C99.9522 39.9262 100.155 39.0018 100.535 38.1453C100.914 37.2887 101.463 36.5177 102.148 35.8784C102.833 35.2391 103.64 34.7447 104.52 34.4248C105.401 34.105 106.337 33.9663 107.272 34.0171C108.146 33.9921 109.015 34.1457 109.827 34.4685C110.64 34.7914 111.377 35.2767 111.995 35.8946C112.613 36.5126 113.098 37.2502 113.421 38.0623C113.744 38.8744 113.898 39.7438 113.873 40.6174C113.868 41.5355 113.679 42.4434 113.318 43.2876C112.957 44.1318 112.431 44.8953 111.77 45.5331C111.11 46.171 110.329 46.6703 109.472 47.0018C108.616 47.3333 107.702 47.4902 106.784 47.4633ZM110.207 45.2595C110.818 44.3199 111.078 43.1941 110.94 42.0813C110.94 39.6367 109.717 34.9977 106.295 34.9977C105.839 34.9507 105.378 35.0151 104.952 35.1853C104.526 35.3556 104.148 35.6267 103.85 35.9753C103.428 36.3844 103.099 36.8807 102.888 37.4295C102.677 37.9784 102.588 38.5667 102.627 39.1535C102.627 41.8421 104.094 46.4873 107.272 46.4873C107.819 46.4918 108.36 46.3856 108.865 46.1751C109.369 45.9646 109.825 45.6542 110.207 45.2627V45.2595Z" fill="#A6431F"/>
<path d="M91.6262 47.4633C90.7397 47.4935 89.8562 47.3452 89.0281 47.0273C88.2 46.7094 87.4443 46.2283 86.8057 45.6126C86.1672 44.997 85.6588 44.2593 85.3109 43.4434C84.9629 42.6275 84.7825 41.75 84.7803 40.863C84.7939 39.9262 84.9967 39.0018 85.3763 38.1453C85.7559 37.2887 86.3046 36.5177 86.9895 35.8784C87.6744 35.2391 88.4813 34.7447 89.3619 34.4248C90.2425 34.105 91.1787 33.9663 92.1142 34.0171C92.9877 33.9921 93.8572 34.1457 94.6693 34.4685C95.4814 34.7914 96.219 35.2767 96.837 35.8946C97.4549 36.5126 97.9402 37.2502 98.263 38.0623C98.5859 38.8744 98.7395 39.7438 98.7145 40.6174C98.7094 41.5355 98.5208 42.4434 98.1598 43.2876C97.7987 44.1318 97.2725 44.8953 96.6121 45.5331C95.9516 46.171 95.1703 46.6703 94.3141 47.0018C93.4578 47.3333 92.544 47.4902 91.6262 47.4633ZM95.0484 45.2595C95.6603 44.3199 95.9201 43.1941 95.7819 42.0813C95.7819 39.6367 94.5588 34.9977 91.1366 34.9977C90.6805 34.9507 90.2197 35.0151 89.7939 35.1853C89.3681 35.3556 88.99 35.6267 88.692 35.9753C88.2652 36.4319 87.9365 36.9712 87.7262 37.5597C87.5158 38.1483 87.4282 38.7737 87.4689 39.3974C87.4689 42.0861 88.936 46.7313 92.1142 46.7313C93.2174 46.5471 94.2397 46.0354 95.0484 45.2627V45.2595Z" fill="#A6431F"/>
<path d="M82.5802 46.9734L78.6685 47.9509C77.1334 48.2223 75.5812 48.3859 74.0233 48.4405C66.1998 48.4405 63.2656 42.8176 63.2656 38.1724C63.2774 36.7324 63.582 35.3098 64.1608 33.9912C64.7397 32.6726 65.5808 31.4855 66.6329 30.5022C67.6849 29.5189 68.9261 28.7598 70.2807 28.2713C71.6354 27.7827 73.0753 27.5749 74.5128 27.6603C75.993 27.7021 77.4671 27.8658 78.9204 28.1499C80.2834 28.3514 81.558 28.946 82.5881 29.8609L80.1435 32.0647L79.166 32.3087L79.8995 31.0856C79.1366 30.2211 78.1947 29.5328 77.1392 29.0685C76.0838 28.6043 74.94 28.3751 73.7871 28.397C72.7184 28.3986 71.6613 28.6184 70.6806 29.043C69.6998 29.4675 68.8161 30.0879 68.0836 30.8661C67.3511 31.6443 66.7853 32.5639 66.4207 33.5685C66.0562 34.5731 65.9007 35.6416 65.9637 36.7084C65.9226 38.0474 66.152 39.3809 66.6381 40.6292C67.1242 41.8775 67.857 43.0149 68.7928 43.9735C69.7286 44.9321 70.8481 45.6921 72.0843 46.2081C73.3206 46.724 74.6482 46.9854 75.9878 46.9765C77.2527 47.0464 78.5147 46.794 79.6555 46.243V41.5961L75.4998 41.8401L77.7036 40.617H83.5704L82.8258 41.3553C82.5818 41.5993 82.5818 41.5993 82.5818 41.8448V46.9781L82.5802 46.9734Z" fill="#A6431F"/>
<path d="M133.187 46.2401C132.21 46.2401 131.964 45.9961 131.964 44.773V28.6381C131.964 27.6605 132.454 27.415 133.187 26.927H129.275L127.32 28.1501H129.524V45.5018C129.524 45.9913 129.524 46.2353 128.791 46.9689H133.68L134.657 46.2353L133.187 46.2401Z" fill="#A6431F"/>
<path d="M144.677 46.4835C144.433 46.7275 143.944 46.7275 143.7 46.973C142.856 47.3506 141.934 47.5186 141.011 47.4626C139.714 47.5494 138.425 47.2058 137.343 46.4851C136.449 45.7862 135.722 44.8969 135.214 43.8818C134.707 42.8668 134.432 41.7514 134.409 40.6167C134.379 39.7738 134.522 38.9337 134.831 38.1487C135.14 37.3638 135.607 36.6509 136.203 36.0545C136.8 35.458 137.513 34.9909 138.298 34.6822C139.083 34.3736 139.923 34.2299 140.766 34.2603C141.788 34.2711 142.793 34.5224 143.7 34.9939C144.635 35.6452 145.324 36.5922 145.655 37.6825L139.055 40.3711H137.098C137.831 43.7933 140.276 45.9939 142.965 45.9939C144.17 45.9654 145.348 45.6289 146.387 45.0164L144.677 46.4835ZM141.989 38.1721C142.478 37.9281 142.722 37.9281 142.722 37.4385C142.664 36.7674 142.355 36.143 141.857 35.6899C141.358 35.2367 140.707 34.9882 140.034 34.9939C139.562 35.0259 139.102 35.1547 138.682 35.3722C138.262 35.5897 137.892 35.8914 137.594 36.2583C137.295 36.6253 137.076 37.0497 136.949 37.5052C136.822 37.9606 136.79 38.4373 136.855 38.9056V40.3727L141.989 38.1721Z" fill="#A6431F"/>
<path d="M147.366 34.2606V36.2204H147.122L147.366 34.2653H146.633V34.0166H148.1V34.2606H147.366Z" fill="#A6431F"/>
<path d="M149.811 34.2603L149.321 35.9713H149.077L148.588 34.2603V36.2153H148.344V34.2603H148.588L149.077 35.9713L149.567 34.2603H149.811Z" fill="#A6431F"/>
<path d="M68.8904 22.282H67.4233C67.4233 22.038 67.1793 21.5484 66.9337 20.5709H64.9787C64.7347 21.5484 64.4891 22.038 64.4891 22.282H63.2676C63.5287 21.3636 63.8554 20.465 64.2451 19.5934C64.6997 18.663 65.0284 17.6763 65.2227 16.6592H66.9353C67.1296 17.6763 67.4583 18.663 67.9128 19.5934C68.3837 20.43 68.714 21.3383 68.8904 22.282ZM66.9353 19.8374C66.6254 19.0436 66.3801 18.226 66.2018 17.3927C66.2018 17.3927 65.9578 18.3703 65.4682 19.8374H66.9353Z" fill="#A6431F"/>
<path d="M74.5134 22.282H73.5359C73.5359 22.282 73.0463 21.5484 72.3128 20.3269C71.5792 19.1054 71.0897 18.3718 70.8457 17.8823V22.2899H69.8682V16.6592H71.0913C71.2978 17.3646 71.63 18.0269 72.072 18.6143C72.6332 19.3451 73.047 20.178 73.2903 21.0668V16.9032H74.2757V19.5934C74.4872 20.4729 74.5673 21.379 74.5134 22.282Z" fill="#A6431F"/>
<path d="M80.8699 19.1035C80.8526 19.8952 80.597 20.6632 80.1363 21.3073C79.8891 21.6514 79.5545 21.9234 79.1672 22.0953C78.7798 22.2671 78.3536 22.3325 77.9325 22.2848H76.2246V16.6589H77.9357C78.3334 16.628 78.7332 16.677 79.1117 16.803C79.4902 16.929 79.8396 17.1294 80.1395 17.3924C80.3778 17.6078 80.5665 17.8723 80.6926 18.1677C80.8187 18.4632 80.8792 18.7824 80.8699 19.1035ZM79.6468 19.3475C79.5959 18.8279 79.4286 18.3264 79.1572 17.8804C78.9132 17.3908 78.4237 17.3908 77.6901 17.3908H77.2006V21.0664H77.6901C78.2173 21.0545 78.7286 20.8839 79.1572 20.5769C79.465 20.2406 79.6392 19.8033 79.6468 19.3475Z" fill="#A6431F"/>
<path d="M86.738 22.282H85.5149C85.4012 21.5885 85.1519 20.9241 84.7814 20.3269C84.5374 20.0829 84.2918 20.0829 83.8039 20.0829H83.3143V22.2867H82.0928V16.6592H84.0478C85.271 16.6592 86.0029 17.1487 86.0029 18.1263C85.9923 18.4723 85.8661 18.8049 85.6444 19.0708C85.4227 19.3367 85.1183 19.5207 84.7798 19.5934C85.0243 19.5934 85.2689 19.8379 85.5134 20.3269C86.0045 20.5709 86.2485 21.3044 86.738 22.282ZM85.027 18.1263C84.9914 17.8358 84.8434 17.5707 84.6148 17.388C84.3862 17.2053 84.0951 17.1194 83.8039 17.1487H83.0703V18.863H83.5599C84.5379 19.1054 85.027 18.8598 85.027 18.1263Z" fill="#A6431F"/>
<path d="M92.849 19.3471C92.9139 20.1251 92.6671 20.897 92.1629 21.493C91.6587 22.089 90.9383 22.4603 90.1604 22.5252C89.438 22.5444 88.7367 22.2813 88.2053 21.7917C87.7151 21.2605 87.4514 20.5592 87.4702 19.8366C87.4053 19.0586 87.652 18.2867 88.1563 17.6907C88.6605 17.0947 89.3808 16.7234 90.1588 16.6584C90.8811 16.6393 91.5824 16.9024 92.1139 17.392C92.6034 17.636 92.849 18.3695 92.849 19.3471ZM91.6259 19.3471C91.614 18.8199 91.4434 18.3086 91.1363 17.88C90.8923 17.3904 90.4028 17.3904 89.9132 17.3904C89.7241 17.3941 89.5382 17.44 89.3691 17.5247C89.2 17.6094 89.0519 17.7307 88.9357 17.88C88.6643 18.326 88.497 18.8275 88.4461 19.3471C88.497 19.8667 88.6643 20.3681 88.9357 20.8142C89.1797 21.3037 89.6692 21.3037 90.1588 21.3037C90.3479 21.3 90.5338 21.2542 90.7029 21.1695C90.872 21.0848 91.0201 20.9634 91.1363 20.8142C91.6259 20.5702 91.6259 20.0806 91.6259 19.3471Z" fill="#A6431F"/>
<path d="M95.2954 22.282H94.0723V16.6592H95.2954V22.282Z" fill="#A6431F"/>
<path d="M101.65 19.1035C101.632 19.8951 101.377 20.663 100.917 21.3073C100.669 21.6514 100.335 21.9234 99.9474 22.0953C99.5601 22.2671 99.1339 22.3325 98.7128 22.2848H97.0049V16.6589H98.716C99.1137 16.628 99.5135 16.677 99.892 16.803C100.27 16.929 100.62 17.1294 100.92 17.3924C101.158 17.6078 101.347 17.8723 101.473 18.1677C101.599 18.4632 101.659 18.7824 101.65 19.1035ZM100.427 19.3475C100.376 18.8279 100.209 18.3264 99.9375 17.8804C99.6935 17.3908 99.2039 17.3908 98.4704 17.3908H97.9809V21.0664H98.4704C98.9975 21.0545 99.5088 20.8839 99.9375 20.5769C100.427 20.3266 100.427 19.837 100.427 19.3475Z" fill="#A6431F"/>
<path d="M109.963 22.282H108.496C108.496 22.038 108.252 21.5484 108.006 20.5709H106.051C105.807 21.5484 105.561 22.038 105.561 22.282H104.34C104.601 21.3636 104.928 20.465 105.317 19.5934C105.772 18.663 106.101 17.6763 106.295 16.6592H108.008C108.202 17.6763 108.531 18.663 108.985 19.5934C109.456 20.43 109.786 21.3383 109.963 22.282ZM108.008 19.8374C107.698 19.0436 107.452 18.226 107.274 17.3927C107.274 17.3927 107.03 18.3703 106.54 19.8374H108.008Z" fill="#A6431F"/>
<path d="M115.096 18.1263C115.132 18.4159 115.082 18.7098 114.952 18.9709C114.821 19.232 114.616 19.4486 114.363 19.5934C113.755 19.8989 113.087 20.0661 112.408 20.0829H112.164V22.2867H110.94V16.6592H113.144C113.664 16.7101 114.165 16.8774 114.611 17.1487C114.852 17.1487 115.096 17.6367 115.096 18.1263ZM114.119 18.3703C114.119 17.6367 113.629 17.3927 112.896 17.3927H112.162V19.3478H112.406C113.385 19.3478 114.119 18.863 114.119 18.3703Z" fill="#A6431F"/>
<path d="M120.475 18.1263C120.511 18.4159 120.461 18.7098 120.33 18.9709C120.2 19.232 119.995 19.4486 119.742 19.5934C119.134 19.8989 118.466 20.0661 117.786 20.0829H117.542V22.2867H116.319V16.6592H118.523C119.043 16.7101 119.544 16.8774 119.99 17.1487C120.231 17.1487 120.475 17.6367 120.475 18.1263ZM119.252 18.3703C119.252 17.6367 118.762 17.3927 118.029 17.3927H117.295V19.3478H117.539C118.764 19.3478 119.252 18.863 119.252 18.3703Z" fill="#A6431F"/>
<path d="M129.032 19.3471C129.097 20.1251 128.85 20.897 128.345 21.493C127.841 22.089 127.121 22.4603 126.343 22.5252C125.621 22.5444 124.919 22.2813 124.388 21.7917C123.898 21.2605 123.634 20.5592 123.653 19.8366C123.588 19.0586 123.835 18.2867 124.339 17.6907C124.843 17.0947 125.563 16.7234 126.341 16.6584C127.064 16.6393 127.765 16.9024 128.296 17.392C128.786 17.636 129.032 18.3695 129.032 19.3471ZM127.808 19.3471C127.797 18.8199 127.626 18.3086 127.319 17.88C127.075 17.3904 126.585 17.3904 126.096 17.3904C125.907 17.3941 125.721 17.44 125.552 17.5247C125.383 17.6094 125.235 17.7307 125.118 17.88C124.847 18.326 124.68 18.8275 124.629 19.3471C124.68 19.8667 124.847 20.3681 125.118 20.8142C125.362 21.3037 125.852 21.3037 126.341 21.3037C126.531 21.3 126.716 21.2542 126.886 21.1695C127.055 21.0848 127.203 20.9634 127.319 20.8142C127.666 20.4069 127.841 19.881 127.808 19.3471Z" fill="#A6431F"/>
<path d="M134.899 22.282H133.922C133.922 22.282 133.432 21.5484 132.699 20.3269C131.965 19.1054 131.475 18.3718 131.231 17.8823V22.2899H130.254V16.6592H131.477C131.684 17.3646 132.016 18.0269 132.458 18.6143C133.019 19.3451 133.433 20.178 133.676 21.0668V16.9032H134.661V19.5934C134.873 20.4729 134.953 21.379 134.899 22.282Z" fill="#A6431F"/>
<defs>
<linearGradient id="paint0_linear_2007_3466" x1="27.3826" y1="15.7869" x2="27.3826" y2="61.8436" gradientUnits="userSpaceOnUse">
<stop stop-color="#257DB0"/>
<stop offset="0.208" stop-color="#3C90B3"/>
<stop offset="0.742" stop-color="#73BDB9"/>
<stop offset="1" stop-color="#89CEBC"/>
</linearGradient>
<linearGradient id="paint1_linear_2007_3466" x1="15.7812" y1="27.2246" x2="45.2357" y2="27.2246" gradientUnits="userSpaceOnUse">
<stop stop-color="#51BFAC"/>
<stop offset="1" stop-color="#DEE899"/>
</linearGradient>
<linearGradient id="paint2_linear_2007_3466" x1="30.5068" y1="38.8141" x2="30.5068" y2="62.0033" gradientUnits="userSpaceOnUse">
<stop stop-color="#EB403D"/>
<stop offset="0.194" stop-color="#D64252"/>
<stop offset="0.737" stop-color="#9F4887"/>
<stop offset="1" stop-color="#894A9C"/>
</linearGradient>
<linearGradient id="paint3_linear_2007_3466" x1="47.4657" y1="32.6366" x2="47.4657" y2="45.0056" gradientUnits="userSpaceOnUse">
<stop stop-color="#F48779"/>
<stop offset="0.612" stop-color="#FAB076"/>
<stop offset="1" stop-color="#FDC674"/>
</linearGradient>
</defs>
</svg>
