<svg width="80" height="80" viewBox="0 0 80 80" fill="none" xmlns="http://www.w3.org/2000/svg">
<path d="M72.3013 39.0333C72.1748 38.7357 71.9939 38.4644 71.768 38.2333L65.1013 31.5666C64.6274 31.125 64.0006 30.8846 63.3529 30.896C62.7052 30.9074 62.0873 31.1698 61.6292 31.6278C61.1712 32.0859 60.9088 32.7038 60.8974 33.3515C60.886 33.9992 61.1264 34.626 61.568 35.0999L63.968 37.4999H46.668C46.0049 37.4999 45.369 37.7633 44.9002 38.2322C44.4314 38.701 44.168 39.3369 44.168 39.9999C44.168 40.663 44.4314 41.2988 44.9002 41.7677C45.369 42.2365 46.0049 42.4999 46.668 42.4999H63.968L61.568 44.8999C61.0998 45.3687 60.8368 46.0041 60.8368 46.6666C60.8368 47.3291 61.0998 47.9645 61.568 48.4333C62.0367 48.9014 62.6721 49.1644 63.3346 49.1644C63.9971 49.1644 64.6326 48.9014 65.1013 48.4333L71.768 41.7666C71.9939 41.5354 72.1748 41.2641 72.3013 40.9666C72.4334 40.6614 72.5015 40.3324 72.5015 39.9999C72.5015 39.6674 72.4334 39.3384 72.3013 39.0333ZM56.668 69.1666H36.668C36.0049 69.1666 35.369 68.9032 34.9002 68.4344C34.4314 67.9655 34.168 67.3296 34.168 66.6666C34.168 66.0035 34.4314 65.3677 34.9002 64.8988C35.369 64.43 36.0049 64.1666 36.668 64.1666H56.668C56.889 64.1666 57.1009 64.0788 57.2572 63.9225C57.4135 63.7662 57.5013 63.5543 57.5013 63.3333V56.6666C57.5013 56.0035 57.7647 55.3677 58.2335 54.8988C58.7024 54.43 59.3383 54.1666 60.0013 54.1666C60.6643 54.1666 61.3002 54.43 61.7691 54.8988C62.2379 55.3677 62.5013 56.0035 62.5013 56.6666V63.3333C62.4926 64.8776 61.8752 66.3563 60.7831 67.4484C59.691 68.5404 58.2124 69.1578 56.668 69.1666ZM60.0013 25.8333C59.3409 25.8246 58.7101 25.5585 58.2431 25.0915C57.7761 24.6245 57.5099 23.9936 57.5013 23.3333V16.6666C57.5013 16.4456 57.4135 16.2336 57.2572 16.0773C57.1009 15.921 56.889 15.8333 56.668 15.8333H36.668C36.0049 15.8333 35.369 15.5699 34.9002 15.101C34.4314 14.6322 34.168 13.9963 34.168 13.3333C34.168 12.6702 34.4314 12.0343 34.9002 11.5655C35.369 11.0966 36.0049 10.8333 36.668 10.8333H56.668C58.2124 10.842 59.691 11.4594 60.7831 12.5515C61.8752 13.6435 62.4926 15.1222 62.5013 16.6666V23.3333C62.4927 23.9936 62.2265 24.6245 61.7595 25.0915C61.2925 25.5585 60.6617 25.8246 60.0013 25.8333Z" fill="#EF9A9A"/>
<path d="M36.9333 9.66665C36.2344 9.12308 35.4216 8.74475 34.5556 8.56002C33.6897 8.37529 32.7932 8.38895 31.9333 8.59998L11.9333 13.6C10.6673 13.913 9.5426 14.6412 8.73898 15.6684C7.93536 16.6956 7.49915 17.9625 7.5 19.2667V60.7333C7.49915 62.0375 7.93536 63.3044 8.73898 64.3315C9.5426 65.3587 10.6673 66.087 11.9333 66.4L31.9333 71.4C32.3987 71.4491 32.868 71.4491 33.3333 71.4C34.1006 71.4044 34.8611 71.2565 35.5709 70.965C36.2806 70.6734 36.9254 70.2439 37.468 69.7013C38.0105 69.1587 38.4401 68.5139 38.7316 67.8042C39.0232 67.0945 39.1711 66.3339 39.1667 65.5666V14.2666C39.1633 13.3815 38.9608 12.5084 38.5742 11.7121C38.1876 10.9158 37.6268 10.2168 36.9333 9.66665Z" fill="#F44336"/>
</svg>
