<svg width="25" height="24" viewBox="0 0 25 24" fill="none" xmlns="http://www.w3.org/2000/svg">
<path fill-rule="evenodd" clip-rule="evenodd" d="M18.5365 1.25H18.4635C17.7243 1.24999 17.1168 1.24998 16.6253 1.29671C16.1146 1.34527 15.6522 1.44953 15.2317 1.70725C14.8141 1.96311 14.4631 2.31414 14.2072 2.73166C13.9495 3.15221 13.8453 3.61456 13.7967 4.12529C13.75 4.61679 13.75 5.2243 13.75 5.96344V6.03655C13.75 6.77569 13.75 7.38322 13.7967 7.87471C13.8453 8.38545 13.9495 8.84779 14.2072 9.26834C14.4631 9.68586 14.8141 10.0369 15.2317 10.2928C15.6522 10.5505 16.1146 10.6547 16.6253 10.7033C17.1168 10.75 17.7243 10.75 18.4634 10.75H18.5366C19.2757 10.75 19.8832 10.75 20.3747 10.7033C20.8854 10.6547 21.3478 10.5505 21.7683 10.2928C22.1859 10.0369 22.5369 9.68586 22.7928 9.26834C23.0505 8.84779 23.1547 8.38545 23.2033 7.87471C23.25 7.38322 23.25 6.7757 23.25 6.03656V5.96344C23.25 5.2243 23.25 4.61679 23.2033 4.12529C23.1547 3.61456 23.0505 3.15221 22.7928 2.73166C22.5369 2.31414 22.1859 1.96311 21.7683 1.70725C21.3478 1.44953 20.8854 1.34527 20.3747 1.29671C19.8832 1.24998 19.2757 1.24999 18.5365 1.25ZM16.0154 2.98621C16.1607 2.8972 16.3663 2.8281 16.7673 2.78997C17.1794 2.75079 17.7153 2.75 18.5 2.75C19.2847 2.75 19.8206 2.75079 20.2327 2.78997C20.6337 2.8281 20.8393 2.8972 20.9846 2.98621C21.2003 3.11838 21.3816 3.29972 21.5138 3.51541C21.6028 3.66067 21.6719 3.86634 21.71 4.26727C21.7492 4.67937 21.75 5.21526 21.75 6C21.75 6.78474 21.7492 7.32063 21.71 7.73273C21.6719 8.13367 21.6028 8.33934 21.5138 8.48459C21.3816 8.70028 21.2003 8.88162 20.9846 9.01379C20.8393 9.10281 20.6337 9.17191 20.2327 9.21003C19.8206 9.24921 19.2847 9.25 18.5 9.25C17.7153 9.25 17.1794 9.24921 16.7673 9.21003C16.3663 9.17191 16.1607 9.10281 16.0154 9.01379C15.7997 8.88162 15.6184 8.70028 15.4862 8.48459C15.3972 8.33934 15.3281 8.13367 15.29 7.73273C15.2508 7.32063 15.25 6.78474 15.25 6C15.25 5.21526 15.2508 4.67937 15.29 4.26727C15.3281 3.86634 15.3972 3.66067 15.4862 3.51541C15.6184 3.29972 15.7997 3.11838 16.0154 2.98621Z" fill="#777777"/>
<path fill-rule="evenodd" clip-rule="evenodd" d="M6.46345 1.25H6.53655C7.27569 1.24999 7.88322 1.24998 8.37471 1.29671C8.88545 1.34527 9.34779 1.44953 9.76834 1.70725C10.1859 1.96311 10.5369 2.31414 10.7928 2.73166C11.0505 3.15221 11.1547 3.61456 11.2033 4.12529C11.25 4.61678 11.25 5.22428 11.25 5.96341V6.03656C11.25 6.77569 11.25 7.38322 11.2033 7.87471C11.1547 8.38545 11.0505 8.84779 10.7928 9.26834C10.5369 9.68586 10.1859 10.0369 9.76834 10.2928C9.34779 10.5505 8.88545 10.6547 8.37471 10.7033C7.88322 10.75 7.27572 10.75 6.53659 10.75H6.46344C5.72431 10.75 5.11678 10.75 4.62529 10.7033C4.11456 10.6547 3.65221 10.5505 3.23166 10.2928C2.81414 10.0369 2.46311 9.68586 2.20725 9.26834C1.94953 8.84779 1.84527 8.38545 1.79671 7.87471C1.74998 7.38322 1.74999 6.7757 1.75 6.03656V5.96345C1.74999 5.22431 1.74998 4.61679 1.79671 4.12529C1.84527 3.61456 1.94953 3.15221 2.20725 2.73166C2.46311 2.31414 2.81414 1.96311 3.23166 1.70725C3.65221 1.44953 4.11456 1.34527 4.62529 1.29671C5.11679 1.24998 5.72431 1.24999 6.46345 1.25ZM4.76727 2.78997C4.36634 2.8281 4.16067 2.8972 4.01541 2.98621C3.79972 3.11838 3.61838 3.29972 3.48621 3.51541C3.3972 3.66067 3.3281 3.86634 3.28997 4.26727C3.25079 4.67937 3.25 5.21526 3.25 6C3.25 6.78474 3.25079 7.32063 3.28997 7.73273C3.3281 8.13367 3.3972 8.33934 3.48621 8.48459C3.61838 8.70028 3.79972 8.88162 4.01541 9.01379C4.16067 9.10281 4.36634 9.17191 4.76727 9.21003C5.17937 9.24921 5.71526 9.25 6.5 9.25C7.28474 9.25 7.82063 9.24921 8.23273 9.21003C8.63367 9.17191 8.83934 9.10281 8.98459 9.01379C9.20028 8.88162 9.38162 8.70028 9.51379 8.48459C9.60281 8.33934 9.67191 8.13367 9.71003 7.73273C9.74921 7.32063 9.75 6.78474 9.75 6C9.75 5.21526 9.74921 4.67937 9.71003 4.26727C9.67191 3.86634 9.60281 3.66067 9.51379 3.51541C9.38162 3.29972 9.20028 3.11838 8.98459 2.98621C8.83934 2.8972 8.63367 2.8281 8.23273 2.78997C7.82063 2.75079 7.28474 2.75 6.5 2.75C5.71526 2.75 5.17937 2.75079 4.76727 2.78997Z" fill="#777777"/>
<path fill-rule="evenodd" clip-rule="evenodd" d="M6.46345 13.25C5.72433 13.25 5.11678 13.25 4.62529 13.2967C4.11456 13.3453 3.65221 13.4495 3.23166 13.7072C2.81414 13.9631 2.46311 14.3141 2.20725 14.7317C1.94953 15.1522 1.84527 15.6146 1.79671 16.1253C1.74998 16.6168 1.74999 17.2243 1.75 17.9635V18.0365C1.74999 18.7757 1.74998 19.3832 1.79671 19.8747C1.84527 20.3854 1.94953 20.8478 2.20725 21.2683C2.46311 21.6859 2.81414 22.0369 3.23166 22.2928C3.65221 22.5505 4.11456 22.6547 4.62529 22.7033C5.11679 22.75 5.7243 22.75 6.46344 22.75H6.53656C7.2757 22.75 7.88322 22.75 8.37471 22.7033C8.88545 22.6547 9.34779 22.5505 9.76834 22.2928C10.1859 22.0369 10.5369 21.6859 10.7928 21.2683C11.0505 20.8478 11.1547 20.3854 11.2033 19.8747C11.25 19.3832 11.25 18.7757 11.25 18.0366V17.9634C11.25 17.2243 11.25 16.6168 11.2033 16.1253C11.1547 15.6146 11.0505 15.1522 10.7928 14.7317C10.5369 14.3141 10.1859 13.9631 9.76834 13.7072C9.34779 13.4495 8.88545 13.3453 8.37471 13.2967C7.88322 13.25 7.27572 13.25 6.53659 13.25H6.46345ZM4.01541 14.9862C4.16067 14.8972 4.36634 14.8281 4.76727 14.79C5.17937 14.7508 5.71526 14.75 6.5 14.75C7.28474 14.75 7.82063 14.7508 8.23273 14.79C8.63367 14.8281 8.83934 14.8972 8.98459 14.9862C9.20028 15.1184 9.38162 15.2997 9.51379 15.5154C9.60281 15.6607 9.67191 15.8663 9.71003 16.2673C9.74921 16.6794 9.75 17.2153 9.75 18C9.75 18.7847 9.74921 19.3206 9.71003 19.7327C9.67191 20.1337 9.60281 20.3393 9.51379 20.4846C9.38162 20.7003 9.20028 20.8816 8.98459 21.0138C8.83934 21.1028 8.63367 21.1719 8.23273 21.21C7.82063 21.2492 7.28474 21.25 6.5 21.25C5.71526 21.25 5.17937 21.2492 4.76727 21.21C4.36634 21.1719 4.16067 21.1028 4.01541 21.0138C3.79972 20.8816 3.61838 20.7003 3.48621 20.4846C3.3972 20.3393 3.3281 20.1337 3.28997 19.7327C3.25079 19.3206 3.25 18.7847 3.25 18C3.25 17.2153 3.25079 16.6794 3.28997 16.2673C3.3281 15.8663 3.3972 15.6607 3.48621 15.5154C3.61838 15.2997 3.79972 15.1184 4.01541 14.9862Z" fill="#777777"/>
<path fill-rule="evenodd" clip-rule="evenodd" d="M20.3747 13.2967C19.8832 13.25 19.2757 13.25 18.5365 13.25H18.4635C17.7243 13.25 17.1168 13.25 16.6253 13.2967C16.1146 13.3453 15.6522 13.4495 15.2317 13.7072C14.8141 13.9631 14.4631 14.3141 14.2072 14.7317C13.9495 15.1522 13.8453 15.6146 13.7967 16.1253C13.75 16.6168 13.75 17.2243 13.75 17.9635V18.0365C13.75 18.7757 13.75 19.3832 13.7967 19.8747C13.8453 20.3854 13.9495 20.8478 14.2072 21.2683C14.4631 21.6859 14.8141 22.0369 15.2317 22.2928C15.6522 22.5505 16.1146 22.6547 16.6253 22.7033C17.1168 22.75 17.7243 22.75 18.4634 22.75H18.5366C19.2757 22.75 19.8832 22.75 20.3747 22.7033C20.8854 22.6547 21.3478 22.5505 21.7683 22.2928C22.1859 22.0369 22.5369 21.6859 22.7928 21.2683C23.0505 20.8478 23.1547 20.3854 23.2033 19.8747C23.25 19.3832 23.25 18.7757 23.25 18.0366V17.9634C23.25 17.2243 23.25 16.6168 23.2033 16.1253C23.1547 15.6146 23.0505 15.1522 22.7928 14.7317C22.5369 14.3141 22.1859 13.9631 21.7683 13.7072C21.3478 13.4495 20.8854 13.3453 20.3747 13.2967ZM16.0154 14.9862C16.1607 14.8972 16.3663 14.8281 16.7673 14.79C17.1794 14.7508 17.7153 14.75 18.5 14.75C19.2847 14.75 19.8206 14.7508 20.2327 14.79C20.6337 14.8281 20.8393 14.8972 20.9846 14.9862C21.2003 15.1184 21.3816 15.2997 21.5138 15.5154C21.6028 15.6607 21.6719 15.8663 21.71 16.2673C21.7492 16.6794 21.75 17.2153 21.75 18C21.75 18.7847 21.7492 19.3206 21.71 19.7327C21.6719 20.1337 21.6028 20.3393 21.5138 20.4846C21.3816 20.7003 21.2003 20.8816 20.9846 21.0138C20.8393 21.1028 20.6337 21.1719 20.2327 21.21C19.8206 21.2492 19.2847 21.25 18.5 21.25C17.7153 21.25 17.1794 21.2492 16.7673 21.21C16.3663 21.1719 16.1607 21.1028 16.0154 21.0138C15.7997 20.8816 15.6184 20.7003 15.4862 20.4846C15.3972 20.3393 15.3281 20.1337 15.29 19.7327C15.2508 19.3206 15.25 18.7847 15.25 18C15.25 17.2153 15.2508 16.6794 15.29 16.2673C15.3281 15.8663 15.3972 15.6607 15.4862 15.5154C15.6184 15.2997 15.7997 15.1184 16.0154 14.9862Z" fill="#777777"/>
</svg>
