<svg width="37" height="37" viewBox="0 0 37 37" fill="none" xmlns="http://www.w3.org/2000/svg">
<path fill-rule="evenodd" clip-rule="evenodd" d="M18.8067 2.28577C12.052 2.28577 6.51264 7.59215 6.51259 14.2151C6.51245 15.7411 6.40688 16.8794 5.69117 17.9042C5.56 18.0893 5.42112 18.2735 5.26904 18.4752L5.14727 18.6369C4.95214 18.8967 4.74164 19.1814 4.54468 19.481C4.1544 20.0745 3.76887 20.7962 3.63608 21.6411C3.20189 24.4036 5.20494 26.1678 7.1472 26.9488C14.0443 29.7219 23.5691 29.7219 30.4662 26.9488C32.4084 26.1678 34.4115 24.4036 33.9773 21.6411C33.8445 20.7962 33.459 20.0745 33.0687 19.481C32.8717 19.1814 32.6612 18.8967 32.4661 18.6369L32.3444 18.4754C32.1924 18.2737 32.0534 18.0893 31.9223 17.9042C31.2065 16.8794 31.1009 15.7413 31.1008 14.2152C31.1008 7.5922 25.5614 2.28577 18.8067 2.28577ZM8.74116 14.2152C8.74116 8.8921 13.2125 4.51434 18.8067 4.51434C24.4008 4.51434 28.8722 8.8921 28.8722 14.2152C28.8724 15.779 28.9518 17.5458 30.0979 19.1841L30.1015 19.1894C30.2545 19.4054 30.4197 19.6245 30.5747 19.8299L30.6843 19.9755C30.8753 20.2298 31.0504 20.4677 31.2066 20.7054C31.5228 21.1862 31.7144 21.5965 31.7757 21.9871C31.9734 23.2449 31.1515 24.2713 29.6348 24.8811C23.2712 27.4397 14.3422 27.4397 7.97856 24.8811C6.46192 24.2713 5.63994 23.2449 5.83763 21.9871C5.89902 21.5965 6.09062 21.1862 6.40676 20.7054C6.56302 20.4677 6.73805 20.2298 6.92907 19.9755L7.03872 19.8299C7.19365 19.6245 7.35886 19.4054 7.51183 19.1894L7.51551 19.1841C8.6616 17.5458 8.74102 15.779 8.74116 14.2152Z" fill="#A6431F"/>
<path d="M15.0365 30.7505C14.5515 30.3717 13.8512 30.4578 13.4724 30.9427C13.0936 31.4277 13.1796 32.128 13.6646 32.5068C15.0479 33.5873 16.8526 34.2287 18.8077 34.2287C20.7628 34.2287 22.5675 33.5873 23.9508 32.5068C24.4357 32.128 24.5218 31.4277 24.143 30.9427C23.7642 30.4578 23.0639 30.3717 22.5789 30.7505C21.5965 31.5179 20.2772 32.0001 18.8077 32.0001C17.3381 32.0001 16.0189 31.5179 15.0365 30.7505Z" fill="#A6431F"/>
</svg>
